<?xml version="1.0" encoding="utf-8"?>
<!-- Generator: Adobe Illustrator 18.1.1, SVG Export Plug-In . SVG Version: 6.00 Build 0)  -->
<svg version="1.1" id="Layer_1" xmlns="http://www.w3.org/2000/svg" xmlns:xlink="http://www.w3.org/1999/xlink" x="0px" y="0px"
	 viewBox="0 0 326 78" enable-background="new 0 0 326 78" xml:space="preserve">
<g>
	<defs>
		<rect id="SVGID_1_" width="326" height="78"/>
	</defs>
	<clipPath id="SVGID_2_">
		<use xlink:href="#SVGID_1_"  overflow="visible"/>
	</clipPath>
	<rect x="18.4" y="1.3" clip-path="url(#SVGID_2_)" fill="#C35E5C" width="11.4" height="42.8"/>
	<polyline clip-path="url(#SVGID_2_)" fill="#F9A56A" points="10,27.1 27.1,1.3 18.4,1.3 1.4,27.1 1.4,35.8 34.6,35.8 34.6,27.1 
		10,27.1 	"/>
	<path clip-path="url(#SVGID_2_)" fill="#666062" d="M64.6,44.1l-8.8-30.8h-0.3c0.4,5.3,0.6,9.3,0.6,12.2v18.6H45.9V1.3h15.4
		l8.9,30.4h0.2l8.8-30.4h15.4v42.8H84.1V25.3c0-1,0-2.1,0-3.3c0-1.2,0.2-4.1,0.4-8.8h-0.3l-8.6,30.8H64.6"/>
	<path clip-path="url(#SVGID_2_)" fill="#666062" d="M147,22.6c0,7.2-1.8,12.7-5.3,16.4c-3.5,3.8-8.7,5.6-15.5,5.6
		c-6.7,0-11.9-1.9-15.5-5.7c-3.6-3.8-5.4-9.3-5.4-16.5c0-7.1,1.8-12.6,5.3-16.3c3.6-3.8,8.7-5.6,15.5-5.6c6.8,0,12,1.9,15.5,5.6
		C145.3,9.9,147,15.4,147,22.6 M117.5,22.6c0,8.3,2.9,12.4,8.6,12.4c2.9,0,5.1-1,6.5-3c1.4-2,2.1-5.1,2.1-9.4c0-4.3-0.7-7.4-2.2-9.5
		c-1.4-2-3.6-3.1-6.4-3.1C120.4,10.1,117.5,14.2,117.5,22.6z"/>
	<path clip-path="url(#SVGID_2_)" fill="#666062" d="M169.3,28.5v15.6h-11.6V1.3h14c11.6,0,17.5,4.2,17.5,12.7c0,5-2.4,8.8-7.3,11.5
		l12.5,18.7h-13.1l-9.1-15.6H169.3 M169.3,19.8h2.2c4,0,6.1-1.8,6.1-5.4c0-2.9-2-4.4-5.9-4.4h-2.3V19.8z"/>
	<path clip-path="url(#SVGID_2_)" fill="#666062" d="M218.6,19H237v23.1c-5,1.7-10.5,2.6-16.6,2.6c-6.6,0-11.7-1.9-15.3-5.7
		c-3.6-3.8-5.4-9.3-5.4-16.4c0-6.9,2-12.3,5.9-16.1c3.9-3.8,9.5-5.8,16.6-5.8c2.7,0,5.2,0.3,7.6,0.8c2.4,0.5,4.5,1.2,6.3,1.9
		l-3.7,9.1c-3.1-1.5-6.5-2.3-10.2-2.3c-3.4,0-6,1.1-7.8,3.3c-1.8,2.2-2.8,5.3-2.8,9.4c0,4,0.8,7.1,2.5,9.2c1.7,2.1,4.1,3.2,7.2,3.2
		c1.7,0,3.3-0.2,4.7-0.5v-6.7h-7.6V19"/>
	<polyline clip-path="url(#SVGID_2_)" fill="#666062" points="274.2,44.1 248.8,44.1 248.8,1.3 274.2,1.3 274.2,10.5 260.3,10.5 
		260.3,17.3 273.2,17.3 273.2,26.6 260.3,26.6 260.3,34.6 274.2,34.6 274.2,44.1 	"/>
</g>
<g>
	<defs>
		<rect id="SVGID_3_" x="0.1" y="0.6" width="325.5" height="77.4"/>
	</defs>
	<clipPath id="SVGID_4_">
		<use xlink:href="#SVGID_3_"  overflow="visible"/>
	</clipPath>
	<g clip-path="url(#SVGID_4_)">
		<defs>
			<rect id="SVGID_5_" width="326" height="78"/>
		</defs>
		<clipPath id="SVGID_6_">
			<use xlink:href="#SVGID_5_"  overflow="visible"/>
		</clipPath>
		<path clip-path="url(#SVGID_6_)" fill="#666062" d="M325.5,44.1h-15.2l-15.6-30.2h-0.3c0.4,4.7,0.6,8.4,0.6,10.9v19.3h-10.3V1.3
			h15.1L315.4,31h0.2c-0.3-4.3-0.4-7.8-0.4-10.4V1.3h10.3V44.1"/>
		<path clip-path="url(#SVGID_6_)" fill="#C35E5C" d="M7.1,68.4h6.4L11.6,77c-1,0.3-1.9,0.6-2.8,0.7s-1.8,0.2-2.7,0.2
			c-1.9,0-3.5-0.6-4.5-1.7C0.5,75.2,0,73.6,0,71.5c0-2,0.4-3.8,1.2-5.5c0.8-1.6,1.9-2.9,3.4-3.8c1.5-0.9,3.1-1.3,5.1-1.3
			c1.6,0,3.2,0.4,4.6,1.1L13,64.9c-0.6-0.3-1.1-0.5-1.7-0.7c-0.6-0.2-1.2-0.3-1.8-0.3c-1.1,0-2.2,0.3-3.1,0.9
			c-0.9,0.6-1.6,1.5-2.1,2.7c-0.5,1.2-0.8,2.4-0.8,3.7c0,1.3,0.3,2.2,0.8,2.8C4.9,74.7,5.7,75,6.8,75c0.6,0,1.2-0.1,1.9-0.3l0.7-3.4
			h-3L7.1,68.4"/>
	</g>
</g>
<g>
	<defs>
		<rect id="SVGID_7_" width="326" height="78"/>
	</defs>
	<clipPath id="SVGID_8_">
		<use xlink:href="#SVGID_7_"  overflow="visible"/>
	</clipPath>
	<path clip-path="url(#SVGID_8_)" fill="#C35E5C" d="M24.1,64.8c0.4,0,0.8,0,1.1,0.1l-0.7,3.3c-0.3-0.1-0.7-0.2-1.1-0.2
		c-0.9,0-1.6,0.3-2.3,1c-0.7,0.7-1.1,1.7-1.4,3l-1.2,5.6H15l2.7-12.6h2.6L20,67.4h0.1C21.2,65.7,22.5,64.8,24.1,64.8"/>
	<path clip-path="url(#SVGID_8_)" fill="#C35E5C" d="M28.9,77.9c-1.1,0-2-0.4-2.6-1.2c-0.6-0.8-1-1.9-1-3.4c0-1.5,0.3-2.9,0.8-4.3
		c0.5-1.3,1.3-2.4,2.1-3.1c0.9-0.7,1.8-1.1,2.9-1.1c0.7,0,1.4,0.2,1.9,0.5c0.5,0.3,0.9,0.8,1.2,1.4h0.1l0.6-1.6h2.6l-2.7,12.6h-2.6
		l0.2-1.6h0C31.5,77.3,30.3,77.9,28.9,77.9 M30.2,75.2c0.5,0,1-0.3,1.5-0.8c0.5-0.5,0.9-1.2,1.2-2c0.3-0.9,0.4-1.8,0.4-2.9
		c0-0.5-0.1-1-0.4-1.3c-0.3-0.4-0.7-0.5-1.1-0.5c-0.5,0-1,0.3-1.5,0.8c-0.5,0.5-0.8,1.3-1.1,2.1c-0.3,0.9-0.4,1.8-0.4,2.6
		c0,0.7,0.1,1.2,0.4,1.5C29.4,75,29.7,75.2,30.2,75.2z"/>
	<path clip-path="url(#SVGID_8_)" fill="#C35E5C" d="M43.8,75.2c0.5,0,1.1-0.1,1.8-0.4v2.5c-0.8,0.4-1.8,0.6-3,0.6
		c-1.1,0-2-0.2-2.5-0.7c-0.5-0.5-0.8-1.2-0.8-2.2c0-0.4,0-0.8,0.1-1.3l1.3-6.1h-1.7l0.3-1.7l2.2-0.9l1.5-2.7h2.2l-0.6,2.7h3.2
		l-0.6,2.6h-3.2l-1.3,6.1c0,0.2-0.1,0.4-0.1,0.6C42.8,74.9,43.1,75.2,43.8,75.2"/>
	<path clip-path="url(#SVGID_8_)" fill="#C35E5C" d="M51.3,77.7h-3.4l2.7-12.6H54L51.3,77.7 M51.1,62.1c0-0.7,0.2-1.1,0.5-1.5
		c0.4-0.3,0.9-0.5,1.5-0.5c0.5,0,1,0.1,1.3,0.3c0.3,0.2,0.4,0.6,0.4,1c0,0.6-0.2,1.1-0.5,1.5c-0.3,0.4-0.8,0.6-1.5,0.6
		C51.7,63.5,51.1,63.1,51.1,62.1z"/>
	<path clip-path="url(#SVGID_8_)" fill="#C35E5C" d="M63.7,73.5c0,1.4-0.5,2.5-1.4,3.3c-0.9,0.8-2.2,1.1-3.9,1.1
		c-0.8,0-1.5-0.1-2.1-0.2c-0.6-0.1-1.2-0.3-1.7-0.6v-2.8c1.2,0.7,2.4,1,3.6,1c0.6,0,1.1-0.1,1.5-0.4c0.4-0.2,0.6-0.6,0.6-1
		c0-0.3-0.1-0.6-0.4-0.9c-0.3-0.3-0.8-0.6-1.5-1c-0.9-0.5-1.5-1-1.9-1.5c-0.4-0.5-0.5-1.1-0.5-1.8c0-1.3,0.4-2.3,1.2-3
		c0.8-0.7,2-1.1,3.6-1.1c1.5,0,2.9,0.4,4.1,1.1l-1.1,2.4c-1.1-0.6-2-0.9-2.9-0.9c-0.4,0-0.8,0.1-1,0.3c-0.3,0.2-0.4,0.5-0.4,0.8
		c0,0.3,0.1,0.6,0.4,0.8c0.2,0.2,0.7,0.5,1.4,0.8c0.9,0.5,1.6,1,2,1.5C63.5,72.2,63.7,72.8,63.7,73.5"/>
	<path clip-path="url(#SVGID_8_)" fill="#C35E5C" d="M75.9,77.9c-1.1,0-2-0.4-2.6-1.2c-0.6-0.8-1-1.9-1-3.4c0-1.5,0.3-2.9,0.8-4.2
		c0.5-1.3,1.2-2.4,2.1-3.1c0.9-0.7,1.8-1.1,2.9-1.1c0.6,0,1.1,0.1,1.6,0.4c0.4,0.3,0.9,0.8,1.3,1.4h0.1l0-0.3c0-0.8,0.1-1.6,0.3-2.2
		l0.9-4h3.4l-3.7,17.6h-2.6l0.2-1.6h0c-0.5,0.7-1.1,1.1-1.7,1.4C77.2,77.8,76.6,77.9,75.9,77.9 M77.3,75.2c0.5,0,1-0.3,1.4-0.8
		c0.5-0.5,0.8-1.2,1.1-2.1c0.3-0.9,0.4-1.8,0.4-2.8c0-0.6-0.1-1.1-0.4-1.4c-0.3-0.4-0.7-0.5-1.2-0.5c-0.5,0-1,0.3-1.5,0.8
		c-0.5,0.5-0.8,1.3-1.1,2.1c-0.3,0.9-0.4,1.8-0.4,2.6C75.7,74.5,76.3,75.2,77.3,75.2z"/>
	<path clip-path="url(#SVGID_8_)" fill="#C35E5C" d="M97.5,69.8c0,1.6-0.3,3-0.8,4.2c-0.5,1.2-1.3,2.2-2.3,2.8c-1,0.7-2.2,1-3.6,1
		c-1.5,0-2.6-0.4-3.5-1.3c-0.9-0.9-1.3-2.1-1.3-3.5c0-1.6,0.3-3,0.8-4.3c0.5-1.3,1.3-2.2,2.3-2.9c1-0.7,2.2-1,3.6-1
		c1.5,0,2.6,0.4,3.5,1.3C97.1,67.1,97.5,68.3,97.5,69.8 M94.1,69.8c0-1.5-0.5-2.2-1.6-2.2c-0.6,0-1.1,0.2-1.5,0.7
		c-0.4,0.5-0.8,1.1-1.1,2c-0.3,0.9-0.4,1.8-0.4,2.7c0,1.4,0.6,2.1,1.7,2.1c0.6,0,1.1-0.2,1.5-0.7c0.5-0.5,0.8-1.1,1.1-1.9
		C94,71.7,94.1,70.8,94.1,69.8z"/>
	<path clip-path="url(#SVGID_8_)" fill="#C35E5C" d="M109.6,77.7h-3.4l1.5-7.4c0.1-0.5,0.2-1,0.2-1.3c0-0.9-0.4-1.4-1.2-1.4
		c-0.7,0-1.3,0.4-1.9,1.3c-0.6,0.9-1,2.1-1.3,3.6l-1.1,5.2h-3.4l2.7-12.6h2.6l-0.2,2.3h0.1c1.1-1.7,2.4-2.6,4-2.6
		c1,0,1.8,0.3,2.4,0.9c0.6,0.6,0.9,1.5,0.9,2.7c0,0.5-0.1,1.2-0.3,2L109.6,77.7"/>
	<path clip-path="url(#SVGID_8_)" fill="#C35E5C" d="M118.5,77.9c-1.6,0-2.8-0.4-3.7-1.3c-0.9-0.9-1.3-2-1.3-3.6
		c0-1.6,0.3-3,0.9-4.3c0.6-1.3,1.5-2.3,2.5-2.9c1.1-0.7,2.3-1,3.6-1c1.3,0,2.4,0.3,3.1,0.9c0.7,0.6,1.1,1.5,1.1,2.5
		c0,1.4-0.6,2.5-1.9,3.3c-1.3,0.8-3.1,1.1-5.4,1.1h-0.6l0,0.2v0.2c0,0.7,0.2,1.2,0.6,1.6c0.4,0.4,0.9,0.6,1.7,0.6
		c0.7,0,1.2-0.1,1.8-0.2c0.5-0.1,1.2-0.4,1.9-0.8V77C121.6,77.6,120.1,77.9,118.5,77.9 M120.3,67.3c-0.7,0-1.3,0.3-1.9,0.9
		c-0.6,0.6-1,1.3-1.2,2.2h0.5c1.2,0,2.1-0.2,2.7-0.5c0.7-0.4,1-0.9,1-1.5C121.5,67.7,121.1,67.3,120.3,67.3z"/>
	<path clip-path="url(#SVGID_8_)" fill="#C35E5C" d="M134.9,64.8c0.4,0,0.8,0,1.1,0.1l-0.7,3.3c-0.3-0.1-0.7-0.2-1.1-0.2
		c-0.9,0-1.6,0.3-2.3,1c-0.7,0.7-1.1,1.7-1.4,3l-1.2,5.6h-3.4l2.7-12.6h2.6l-0.2,2.3h0.1C132,65.7,133.3,64.8,134.9,64.8"/>
	<path clip-path="url(#SVGID_8_)" fill="#C35E5C" d="M141.1,77.9c-1.6,0-2.8-0.4-3.7-1.3c-0.9-0.9-1.3-2-1.3-3.6
		c0-1.6,0.3-3,0.9-4.3c0.6-1.3,1.5-2.3,2.5-2.9c1.1-0.7,2.3-1,3.6-1c1.3,0,2.4,0.3,3.1,0.9c0.7,0.6,1.1,1.5,1.1,2.5
		c0,1.4-0.6,2.5-1.9,3.3c-1.3,0.8-3.1,1.1-5.4,1.1h-0.6l0,0.2v0.2c0,0.7,0.2,1.2,0.6,1.6c0.4,0.4,0.9,0.6,1.7,0.6
		c0.7,0,1.2-0.1,1.8-0.2c0.5-0.1,1.2-0.4,1.9-0.8V77C144.2,77.6,142.7,77.9,141.1,77.9 M142.9,67.3c-0.7,0-1.3,0.3-1.9,0.9
		c-0.6,0.6-1,1.3-1.2,2.2h0.5c1.2,0,2.1-0.2,2.7-0.5c0.6-0.4,1-0.9,1-1.5C144.1,67.7,143.7,67.3,142.9,67.3z"/>
	<path clip-path="url(#SVGID_8_)" fill="#C35E5C" d="M159,77.7h-3.4l1.5-7.4c0.1-0.5,0.2-1,0.2-1.3c0-0.9-0.4-1.4-1.2-1.4
		c-0.7,0-1.3,0.4-1.9,1.3c-0.6,0.9-1,2.1-1.3,3.6l-1.1,5.2h-3.4l2.7-12.6h2.6l-0.2,2.3h0.1c1.1-1.7,2.4-2.6,4-2.6
		c1,0,1.8,0.3,2.4,0.9c0.6,0.6,0.8,1.5,0.8,2.7c0,0.5-0.1,1.2-0.3,2L159,77.7"/>
	<path clip-path="url(#SVGID_8_)" fill="#C35E5C" d="M173.1,74.3c0.4-1.2,0.8-2,1-2.5l3.4-6.7h3.6l-6.8,12.6h-3.6l-1.6-12.6h3.3
		l0.5,6.6C173,72.7,173,73.6,173.1,74.3L173.1,74.3"/>
	<path clip-path="url(#SVGID_8_)" fill="#C35E5C" d="M192.3,69.8c0,1.6-0.3,3-0.8,4.2c-0.5,1.2-1.3,2.2-2.3,2.8c-1,0.7-2.2,1-3.6,1
		c-1.5,0-2.6-0.4-3.5-1.3c-0.9-0.9-1.3-2.1-1.3-3.5c0-1.6,0.3-3,0.8-4.3c0.5-1.3,1.3-2.2,2.3-2.9c1-0.7,2.2-1,3.6-1
		c1.5,0,2.6,0.4,3.5,1.3C191.8,67.1,192.3,68.3,192.3,69.8 M188.8,69.8c0-1.5-0.5-2.2-1.6-2.2c-0.6,0-1.1,0.2-1.5,0.7
		c-0.4,0.5-0.8,1.1-1.1,2c-0.3,0.9-0.4,1.8-0.4,2.7c0,1.4,0.6,2.1,1.7,2.1c0.6,0,1.1-0.2,1.5-0.7c0.5-0.5,0.8-1.1,1.1-1.9
		C188.7,71.7,188.8,70.8,188.8,69.8z"/>
	<path clip-path="url(#SVGID_8_)" fill="#C35E5C" d="M205.8,69.8c0,1.6-0.3,3-0.8,4.2c-0.5,1.2-1.3,2.2-2.3,2.8c-1,0.7-2.2,1-3.6,1
		c-1.5,0-2.6-0.4-3.5-1.3c-0.9-0.9-1.3-2.1-1.3-3.5c0-1.6,0.3-3,0.8-4.3c0.5-1.3,1.3-2.2,2.3-2.9c1-0.7,2.2-1,3.6-1
		c1.5,0,2.6,0.4,3.5,1.3C205.3,67.1,205.8,68.3,205.8,69.8 M202.4,69.8c0-1.5-0.5-2.2-1.6-2.2c-0.6,0-1.1,0.2-1.5,0.7
		s-0.8,1.1-1.1,2c-0.3,0.9-0.4,1.8-0.4,2.7c0,1.4,0.6,2.1,1.7,2.1c0.6,0,1.1-0.2,1.5-0.7c0.5-0.5,0.8-1.1,1.1-1.9
		C202.2,71.7,202.4,70.8,202.4,69.8z"/>
	<path clip-path="url(#SVGID_8_)" fill="#C35E5C" d="M216.3,64.8c0.4,0,0.8,0,1.1,0.1l-0.7,3.3c-0.3-0.1-0.7-0.2-1.1-0.2
		c-0.9,0-1.6,0.3-2.3,1c-0.7,0.7-1.1,1.7-1.4,3l-1.2,5.6h-3.4l2.7-12.6h2.6l-0.2,2.3h0.1C213.4,65.7,214.7,64.8,216.3,64.8"/>
	<path clip-path="url(#SVGID_8_)" fill="#C35E5C" d="M226.3,77.7h-3.4l2.7-12.6h3.4L226.3,77.7 M226.1,62.1c0-0.7,0.2-1.1,0.5-1.5
		c0.4-0.3,0.9-0.5,1.5-0.5c0.6,0,1,0.1,1.3,0.3c0.3,0.2,0.4,0.6,0.4,1c0,0.6-0.2,1.1-0.5,1.5c-0.3,0.4-0.8,0.6-1.5,0.6
		C226.7,63.5,226.1,63.1,226.1,62.1z"/>
	<path clip-path="url(#SVGID_8_)" fill="#C35E5C" d="M235.4,77.9c-1.6,0-2.8-0.4-3.7-1.3c-0.9-0.9-1.3-2-1.3-3.6
		c0-1.6,0.3-3,0.9-4.3c0.6-1.3,1.5-2.3,2.5-2.9c1.1-0.7,2.3-1,3.6-1c1.3,0,2.4,0.3,3.1,0.9c0.7,0.6,1.1,1.5,1.1,2.5
		c0,1.4-0.6,2.5-1.9,3.3c-1.3,0.8-3.1,1.1-5.4,1.1h-0.6l0,0.2v0.2c0,0.7,0.2,1.2,0.6,1.6c0.4,0.4,0.9,0.6,1.7,0.6
		c0.7,0,1.3-0.1,1.8-0.2c0.5-0.1,1.2-0.4,1.9-0.8V77C238.5,77.6,237,77.9,235.4,77.9 M237.2,67.3c-0.7,0-1.3,0.3-1.9,0.9
		c-0.6,0.6-1,1.3-1.2,2.2h0.5c1.2,0,2.1-0.2,2.7-0.5c0.7-0.4,1-0.9,1-1.5C238.4,67.7,238,67.3,237.2,67.3z"/>
	<path clip-path="url(#SVGID_8_)" fill="#C35E5C" d="M246.8,77.9c-1.1,0-2-0.4-2.6-1.2c-0.6-0.8-1-1.9-1-3.4c0-1.5,0.3-2.9,0.8-4.2
		c0.5-1.3,1.2-2.4,2.1-3.1c0.9-0.7,1.9-1.1,2.9-1.1c0.6,0,1.1,0.1,1.6,0.4c0.4,0.3,0.9,0.8,1.3,1.4h0.1l0-0.3c0-0.8,0.1-1.6,0.3-2.2
		l0.9-4h3.4l-3.7,17.6h-2.6l0.2-1.6h0c-0.5,0.7-1.1,1.1-1.7,1.4C248.2,77.8,247.5,77.9,246.8,77.9 M248.3,75.2c0.5,0,1-0.3,1.4-0.8
		c0.5-0.5,0.8-1.2,1.1-2.1c0.3-0.9,0.4-1.8,0.4-2.8c0-0.6-0.1-1.1-0.4-1.4c-0.3-0.4-0.7-0.5-1.2-0.5c-0.5,0-1,0.3-1.5,0.8
		c-0.5,0.5-0.8,1.3-1.1,2.1c-0.3,0.9-0.4,1.8-0.4,2.6C246.7,74.5,247.2,75.2,248.3,75.2z"/>
	<path clip-path="url(#SVGID_8_)" fill="#C35E5C" d="M262,77.9c-1.6,0-2.8-0.4-3.7-1.3c-0.9-0.9-1.3-2-1.3-3.6c0-1.6,0.3-3,0.9-4.3
		c0.6-1.3,1.5-2.3,2.5-2.9c1.1-0.7,2.3-1,3.6-1c1.3,0,2.4,0.3,3.1,0.9c0.7,0.6,1.1,1.5,1.1,2.5c0,1.4-0.6,2.5-1.9,3.3
		c-1.3,0.8-3,1.1-5.4,1.1h-0.6l0,0.2v0.2c0,0.7,0.2,1.2,0.6,1.6c0.4,0.4,0.9,0.6,1.7,0.6c0.7,0,1.2-0.1,1.8-0.2
		c0.5-0.1,1.2-0.4,1.9-0.8V77C265.1,77.6,263.6,77.9,262,77.9 M263.8,67.3c-0.7,0-1.3,0.3-1.9,0.9c-0.6,0.6-1,1.3-1.2,2.2h0.5
		c1.2,0,2.1-0.2,2.7-0.5c0.7-0.4,1-0.9,1-1.5C265,67.7,264.6,67.3,263.8,67.3z"/>
	<path clip-path="url(#SVGID_8_)" fill="#C35E5C" d="M278.4,64.8c0.4,0,0.8,0,1.1,0.1l-0.7,3.3c-0.3-0.1-0.7-0.2-1.1-0.2
		c-0.9,0-1.6,0.3-2.3,1c-0.7,0.7-1.1,1.7-1.4,3l-1.2,5.6h-3.4l2.7-12.6h2.6l-0.2,2.3h0.1C275.5,65.7,276.8,64.8,278.4,64.8"/>
	<path clip-path="url(#SVGID_8_)" fill="#C35E5C" d="M284.6,77.9c-1.6,0-2.8-0.4-3.7-1.3c-0.9-0.9-1.3-2-1.3-3.6
		c0-1.6,0.3-3,0.9-4.3c0.6-1.3,1.5-2.3,2.5-2.9c1.1-0.7,2.3-1,3.6-1c1.3,0,2.4,0.3,3.1,0.9c0.7,0.6,1.1,1.5,1.1,2.5
		c0,1.4-0.6,2.5-1.9,3.3c-1.3,0.8-3,1.1-5.4,1.1H283l0,0.2v0.2c0,0.7,0.2,1.2,0.6,1.6c0.4,0.4,0.9,0.6,1.7,0.6
		c0.7,0,1.2-0.1,1.8-0.2c0.5-0.1,1.2-0.4,1.9-0.8V77C287.7,77.6,286.2,77.9,284.6,77.9 M286.4,67.3c-0.7,0-1.3,0.3-1.9,0.9
		c-0.6,0.6-1,1.3-1.1,2.2h0.5c1.2,0,2.1-0.2,2.7-0.5s1-0.9,1-1.5C287.6,67.7,287.2,67.3,286.4,67.3z"/>
	<path clip-path="url(#SVGID_8_)" fill="#C35E5C" d="M297.5,77.9c-1.6,0-2.8-0.4-3.7-1.3c-0.9-0.9-1.3-2-1.3-3.6
		c0-1.6,0.3-3,0.9-4.3c0.6-1.3,1.5-2.3,2.5-2.9c1.1-0.7,2.3-1,3.6-1c1.3,0,2.4,0.3,3.1,0.9c0.7,0.6,1.1,1.5,1.1,2.5
		c0,1.4-0.6,2.5-1.9,3.3c-1.3,0.8-3.1,1.1-5.4,1.1h-0.6l0,0.2v0.2c0,0.7,0.2,1.2,0.6,1.6c0.4,0.4,0.9,0.6,1.7,0.6
		c0.7,0,1.3-0.1,1.8-0.2c0.5-0.1,1.2-0.4,1.9-0.8V77C300.6,77.6,299.1,77.9,297.5,77.9 M299.3,67.3c-0.7,0-1.3,0.3-1.9,0.9
		c-0.6,0.6-1,1.3-1.2,2.2h0.5c1.2,0,2.1-0.2,2.7-0.5s1-0.9,1-1.5C300.5,67.7,300.1,67.3,299.3,67.3z"/>
</g>
<g>
	<defs>
		<rect id="SVGID_9_" x="0.1" y="0.6" width="325.5" height="77.4"/>
	</defs>
	<clipPath id="SVGID_10_">
		<use xlink:href="#SVGID_9_"  overflow="visible"/>
	</clipPath>
	<g clip-path="url(#SVGID_10_)">
		<defs>
			<rect id="SVGID_11_" width="326" height="78"/>
		</defs>
		<clipPath id="SVGID_12_">
			<use xlink:href="#SVGID_11_"  overflow="visible"/>
		</clipPath>
		<path clip-path="url(#SVGID_12_)" fill="#C35E5C" d="M315.4,77.7H312l1.5-7.4c0.1-0.5,0.2-1,0.2-1.3c0-0.9-0.4-1.4-1.2-1.4
			c-0.7,0-1.3,0.4-1.9,1.3c-0.6,0.9-1,2.1-1.3,3.6l-1.1,5.2h-3.4l2.7-12.6h2.6l-0.2,2.3h0.1c1.1-1.7,2.4-2.6,4-2.6
			c1,0,1.8,0.3,2.4,0.9c0.6,0.6,0.8,1.5,0.8,2.7c0,0.5-0.1,1.2-0.3,2L315.4,77.7"/>
		<path clip-path="url(#SVGID_12_)" fill="#C35E5C" d="M318.6,76.4c0-0.7,0.2-1.2,0.6-1.6c0.4-0.4,1-0.6,1.7-0.6
			c0.5,0,0.9,0.1,1.2,0.4c0.3,0.3,0.5,0.7,0.5,1.2c0,0.7-0.2,1.2-0.6,1.6c-0.4,0.4-1,0.6-1.6,0.6c-0.5,0-1-0.1-1.3-0.4
			C318.7,77.3,318.6,76.9,318.6,76.4 M322.7,72.2H320l1.8-11h3.8L322.7,72.2z"/>
	</g>
</g>
</svg>
