<?xml version="1.0" encoding="utf-8"?>
<!-- Generator: Adobe Illustrator 18.1.1, SVG Export Plug-In . SVG Version: 6.00 Build 0)  -->
<svg version="1.1" id="Layer_1" xmlns="http://www.w3.org/2000/svg" xmlns:xlink="http://www.w3.org/1999/xlink" x="0px" y="0px"
	 viewBox="0 0 100 100" enable-background="new 0 0 100 100" xml:space="preserve">
<g>
	<g>
		<path d="M22.8,85.7l-5.1-1.2c-2.3-0.5-4.6,0.9-5.1,3.2c-0.5,2.1,0.5,4.4,3.2,5.1l15.4,3.6c2.3,0.5,4.6-0.9,5.1-3.2l3.7-15.5
			c0.5-2.3-0.9-4.6-3.2-5.1c-2.3-0.5-4.6,0.9-5.1,3.2l-1.4,5.8c-10-15.3-9.2-35.2,2.2-49.7c11.4-14.5,31.1-20,48.3-13.7
			c2.5,0.9,4.8-0.2,5.7-2.3c0.9-2.2,0-4.7-2.7-5.7C63,2.5,39.4,9.2,25.7,26.6C12.2,43.7,11.1,67.3,22.8,85.7L22.8,85.7z M22.8,85.7"
			/>
	</g>
</g>
</svg>
