<?xml version="1.0" encoding="utf-8"?>
<!-- Generator: Adobe Illustrator 18.1.1, SVG Export Plug-In . SVG Version: 6.00 Build 0)  -->
<svg version="1.1" id="Layer_1" xmlns="http://www.w3.org/2000/svg" xmlns:xlink="http://www.w3.org/1999/xlink" x="0px" y="0px"
	 viewBox="0 0 100 100" enable-background="new 0 0 100 100" xml:space="preserve">
<g>
	<path fill="#4F76BB" d="M99.8,77.5c0,12.4-10,22.4-22.4,22.4H22.5c-12.4,0-22.4-10-22.4-22.4V22.5c0-12.4,10-22.4,22.4-22.4h54.9
		c12.4,0,22.4,10,22.4,22.4V77.5z"/>
	<path fill-rule="evenodd" clip-rule="evenodd" fill="#FFFFFF" d="M58.4,32.2c1.7-0.1,3.3,0,5,0c0.2,0,0.4,0,0.7,0v-8.7
		c-0.9-0.1-1.8-0.2-2.8-0.3c-1.7-0.1-3.4-0.2-5.2-0.1c-2.6,0.1-5.1,0.7-7.3,2.2c-2.5,1.8-3.8,4.3-4.4,7.3c-0.2,1.2-0.3,2.5-0.3,3.7
		c0,2,0,3.9,0,5.9V43h-8.3v9.7h8.3v24.4h10.1V52.7h8.2c0.4-3.2,0.8-6.4,1.3-9.8c-0.7,0-1.3,0-1.9,0c-2.3,0-7.7,0-7.7,0
		s0-4.8,0.1-6.9C54.4,33.2,56.1,32.3,58.4,32.2z"/>
</g>
</svg>
