<?xml version="1.0" encoding="utf-8"?>
<!-- Generator: Adobe Illustrator 18.1.1, SVG Export Plug-In . SVG Version: 6.00 Build 0)  -->
<svg version="1.1" xmlns="http://www.w3.org/2000/svg" xmlns:xlink="http://www.w3.org/1999/xlink" x="0px" y="0px"
	 viewBox="0 0 260 161" enable-background="new 0 0 260 161" xml:space="preserve">
<g id="Layer_1">
	<g>
		<g>
			<g>
				<path fill="#074A52" d="M145.5,25c16-0.8,32.2-1.5,47.6,3.7s30,17.4,35.4,35.3c3.8,12.5,2.9,26.3,1.5,39.6
					c-1.6,15.3-4.4,32-14.4,41.8c-9.4,9.2-22.5,9.9-34.7,10.1c-48.3,0.9-96.6,1.7-144.9,2.6c-7.7,0.1-16.4-0.1-21.8-6.7
					c-5.1-6.1-5.6-15.7-5.9-24.3C7.7,101.3,7,75.4,6.3,49.5C6.1,41.9,6,33.8,9.7,27.7c4.4-7.5,12.8-9.5,20.4-10.7
					c61.6-9.7,116.8-5.2,175.8,17.9"/>
				<g>
					<path fill="#074A52" d="M145.5,26.5c22.3-1.1,46.4-1.6,64.7,13.3c18.7,15.2,20.8,37.7,18.6,60.2c-1.9,20-5.1,45.6-27.8,51.9
						c-10.3,2.9-21.5,2.2-32,2.4c-12.6,0.2-25.1,0.4-37.7,0.7c-25.1,0.4-50.3,0.9-75.4,1.3c-6.3,0.1-12.6,0.2-18.9,0.3
						c-4.8,0.1-9.7,0.2-14.3-1.3c-11.9-3.9-12.5-17.6-12.8-28.2c-0.8-25.2-1.4-50.5-2-75.8c-0.3-11.2-0.8-24.3,11-29.9
						c4.5-2.1,9.6-2.8,14.5-3.6c6.3-1,12.6-1.8,18.9-2.4c52.4-5.4,104.2,1.7,153.3,20.8c1.8,0.7,2.6-2.2,0.8-2.9
						c-48.1-18.7-99-26.1-150.5-21.3c-11.4,1.1-24.1,1.7-35,5.3c-9,3-14.3,9.6-15.7,18.9c-2,12.9-0.1,26.9,0.3,39.9
						c0.4,14.3,0.8,28.6,1.2,42.9c0.3,9.9-0.7,21.8,4.7,30.7c5,8.3,14.4,9.8,23.4,9.8c28.2-0.2,56.5-1,84.7-1.5
						c13.9-0.2,27.8-0.5,41.7-0.7c11.8-0.2,24,0.4,35.7-1.5c9.5-1.6,18.1-6,23.7-14c6-8.5,8.4-19.2,9.8-29.4
						c3.5-24.4,5.2-51.4-13.3-70.5c-19-19.5-46.2-19.8-71.6-18.6C143.6,23.6,143.6,26.6,145.5,26.5L145.5,26.5z"/>
				</g>
			</g>
			<g>
				<path fill="#074A52" d="M228.5,69c10.6-9.4,16.7-25.7,15.4-41.5c-5.8,15.5-21.6,24.7-35.4,20.5"/>
				<g>
					<path fill="#074A52" d="M229.5,70.1c11.6-10.8,16.8-26.9,15.9-42.5c-0.1-1.8-2.3-2-2.9-0.4c-5.3,13.3-18.9,23.5-33.5,19.5
						c-1.9-0.5-2.7,2.4-0.8,2.9c16.3,4.5,31.3-6.8,37.2-21.5c-1-0.1-2-0.3-2.9-0.4c0.9,14.9-3.9,30.1-15,40.4
						C226,69.3,228.1,71.4,229.5,70.1L229.5,70.1z"/>
				</g>
			</g>
		</g>
		<g>
			<g>
				<path fill="#CF736F" d="M152.1,17.2c16-0.8,32.2-1.5,47.6,3.7s30,17.4,35.4,35.3c3.8,12.5,2.9,26.3,1.5,39.6
					c-1.6,15.3-4.4,32-14.4,41.8c-9.4,9.2-22.5,9.9-34.7,10.1c-48.3,0.9-96.6,1.7-144.9,2.6c-7.7,0.1-16.4-0.1-21.8-6.7
					c-5.1-6.1-5.6-15.7-5.9-24.3c-0.7-25.9-1.4-51.8-2.1-77.7c-0.2-7.5-0.3-15.7,3.4-21.8c4.4-7.5,12.8-9.5,20.4-10.7
					C98.3-0.7,153.4,3.9,212.5,27"/>
				<g>
					<path fill="#CF736F" d="M152.1,18.7c22.3-1.1,46.4-1.6,64.7,13.3c18.7,15.2,20.8,37.7,18.6,60.2c-1.9,20-5.1,45.6-27.8,51.9
						c-10.3,2.9-21.5,2.2-32,2.4c-12.6,0.2-25.1,0.4-37.7,0.7c-25.1,0.4-50.3,0.9-75.4,1.3c-6.3,0.1-12.6,0.2-18.9,0.3
						c-4.8,0.1-9.7,0.2-14.3-1.3c-11.9-3.9-12.5-17.6-12.8-28.2c-0.8-25.2-1.4-50.5-2-75.8c-0.3-11.2-0.8-24.3,11-29.9
						c4.5-2.1,9.6-2.8,14.5-3.6c6.3-1,12.6-1.8,18.9-2.4C111.2,2.3,163,9.4,212.1,28.5c1.8,0.7,2.6-2.2,0.8-2.9
						C164.8,6.8,113.9-0.5,62.5,4.3C51.1,5.4,38.4,6,27.5,9.7c-9,3-14.3,9.6-15.7,18.9c-2,12.9-0.1,26.9,0.3,39.9
						c0.4,14.3,0.8,28.6,1.2,42.9c0.3,9.9-0.7,21.8,4.7,30.7c5,8.3,14.4,9.8,23.4,9.8c28.2-0.2,56.5-1,84.7-1.5
						c13.9-0.2,27.8-0.5,41.7-0.7c11.8-0.2,24,0.4,35.7-1.5c9.5-1.6,18.1-6,23.7-14c6-8.5,8.4-19.2,9.8-29.4
						c3.5-24.4,5.2-51.4-13.3-70.5c-19-19.5-46.2-19.8-71.6-18.6C150.2,15.7,150.2,18.7,152.1,18.7L152.1,18.7z"/>
				</g>
			</g>
			<g>
				<path fill="#CF736F" d="M235.1,61.1c10.6-9.4,16.7-25.7,15.4-41.5c-5.8,15.5-21.6,24.7-35.4,20.5"/>
				<g>
					<path fill="#CF736F" d="M236.1,62.2C247.8,51.4,253,35.3,252,19.6c-0.1-1.8-2.3-2-2.9-0.4c-5.3,13.3-18.9,23.5-33.5,19.5
						c-1.9-0.5-2.7,2.4-0.8,2.9C231,46,246.1,34.8,251.9,20c-1-0.1-2-0.3-2.9-0.4c0.9,14.9-3.9,30.1-15,40.4
						C232.6,61.4,234.7,63.5,236.1,62.2L236.1,62.2z"/>
				</g>
			</g>
		</g>
	</g>
</g>
<g id="Layer_2">
	<g>
		<path fill="#FFFFFF" d="M61.4,66.6c1.4,0,2.6-0.3,3.7-1s1.6-1.7,1.6-3.1c0-1.2-0.4-2.1-1.1-2.8c-0.8-0.7-1.7-1.4-2.8-2
			c-1.1-0.6-2.3-1.1-3.6-1.7c-1.3-0.5-2.5-1.2-3.6-2c-1.1-0.8-2-1.8-2.8-3c-0.8-1.2-1.1-2.7-1.1-4.6c0-1.8,0.3-3.2,1-4.4
			c0.7-1.2,1.6-2.2,2.7-2.9c1.1-0.7,2.3-1.3,3.7-1.6c1.4-0.3,2.7-0.5,4.1-0.5c0.7,0,1.5,0,2.6,0.1c1,0.1,2,0.3,2.9,0.6
			c0.9,0.3,1.7,0.7,2.4,1.2c0.7,0.5,1,1.1,1,1.9c0,0.3,0,0.6-0.1,1c-0.1,0.4-0.2,0.7-0.4,1.1c-0.2,0.3-0.5,0.6-0.8,0.9
			c-0.3,0.2-0.7,0.4-1.1,0.4c-0.4,0-0.7-0.1-1.1-0.3s-0.8-0.4-1.2-0.6c-0.5-0.2-1-0.4-1.7-0.6S64,42.3,63,42.3c-1.7,0-3,0.3-3.9,1
			c-0.9,0.6-1.4,1.5-1.4,2.7c0,1,0.4,1.8,1.1,2.4c0.8,0.6,1.7,1.2,2.8,1.7c1.1,0.5,2.3,1,3.6,1.6c1.3,0.5,2.5,1.3,3.6,2.1
			c1.1,0.9,2,1.9,2.8,3.2c0.8,1.3,1.1,3,1.1,5c0,1.7-0.3,3.2-0.8,4.4s-1.3,2.3-2.3,3.2c-1,0.8-2.2,1.5-3.5,1.9
			c-1.4,0.4-2.9,0.7-4.5,0.7c-1.5,0-3-0.2-4.3-0.5c-1.3-0.3-2.5-0.8-3.5-1.4c-1-0.6-1.7-1.2-2.3-1.9c-0.5-0.7-0.8-1.4-0.8-2.1
			c0-0.3,0.1-0.7,0.2-1.1c0.1-0.4,0.3-0.8,0.6-1.1c0.3-0.3,0.5-0.6,0.8-0.8c0.3-0.2,0.7-0.3,1-0.3c0.5,0,0.9,0.2,1.4,0.6
			c0.5,0.4,1,0.8,1.6,1.2c0.6,0.5,1.3,0.9,2.1,1.2S60.3,66.6,61.4,66.6z"/>
		<path fill="#FFFFFF" d="M79.4,49.4c0.8,0,1.5,0.2,2,0.5c0.5,0.3,0.8,0.8,0.8,1.4v1.4c0.5-0.9,1.3-1.7,2.4-2.5
			c1.1-0.7,2.4-1.1,3.9-1.1c1.2,0,2.3,0.3,3.3,0.8c1,0.5,1.9,1.2,2.7,2.1c0.8,0.9,1.3,1.9,1.8,3c0.4,1.1,0.7,2.4,0.7,3.7v3.9
			c0,1.3-0.2,2.5-0.7,3.6c-0.5,1.2-1.1,2.2-1.8,3.1s-1.6,1.6-2.6,2.1c-1,0.5-2,0.8-3.1,0.8c-1.4,0-2.7-0.4-3.8-1.1s-1.9-1.6-2.4-2.6
			v11.8c0,0.5-0.3,0.9-0.9,1.3c-0.6,0.4-1.3,0.6-2.2,0.6c-0.9,0-1.6-0.2-2.1-0.6c-0.5-0.4-0.8-0.8-0.8-1.3V51.3c0-0.6,0.3-1,0.8-1.4
			C77.9,49.6,78.6,49.4,79.4,49.4z M91,58.7c0-0.5-0.1-1-0.3-1.6c-0.2-0.5-0.5-1-0.9-1.4c-0.4-0.4-0.8-0.7-1.4-1
			c-0.5-0.2-1.1-0.4-1.7-0.4c-0.5,0-1,0.1-1.5,0.3c-0.5,0.2-0.9,0.5-1.3,0.8s-0.7,0.8-0.9,1.3s-0.4,1.1-0.4,1.8v4.7
			c0,0.3,0.1,0.6,0.3,1c0.2,0.4,0.5,0.8,0.9,1.2c0.4,0.4,0.8,0.7,1.3,1c0.5,0.3,1,0.4,1.6,0.4c0.6,0,1.1-0.1,1.6-0.4
			c0.5-0.3,0.9-0.6,1.3-1c0.4-0.4,0.7-0.9,0.9-1.4c0.2-0.5,0.4-1,0.4-1.6V58.7z"/>
		<path fill="#FFFFFF" d="M112.4,54.4c-0.7,0-1.4,0.2-2,0.5c-0.6,0.3-1.2,0.8-1.7,1.4c-0.5,0.6-0.9,1.3-1.2,2.2
			c-0.3,0.9-0.5,1.8-0.5,2.9v8.4c0,0.5-0.3,0.9-0.9,1.3s-1.3,0.6-2.2,0.6c-0.9,0-1.6-0.2-2.1-0.6c-0.5-0.4-0.8-0.8-0.8-1.3V51.3
			c0-0.6,0.3-1,0.8-1.4c0.5-0.3,1.3-0.5,2.1-0.5c0.8,0,1.4,0.2,1.9,0.5c0.5,0.3,0.8,0.8,0.8,1.4v1.9c0.2-0.5,0.5-1,0.9-1.5
			c0.4-0.5,0.8-0.9,1.3-1.3c0.5-0.4,1-0.7,1.6-0.9c0.6-0.2,1.2-0.4,1.9-0.4h1.5c0.6,0,1.1,0.3,1.5,0.8c0.5,0.5,0.7,1.1,0.7,1.9
			c0,0.7-0.2,1.3-0.7,1.9c-0.5,0.5-1,0.8-1.5,0.8H112.4z"/>
		<path fill="#FFFFFF" d="M127.6,49.1c1.3,0,2.5,0.2,3.7,0.7c1.2,0.4,2.2,1,3.1,1.8c0.9,0.8,1.6,1.7,2.1,2.8
			c0.5,1.1,0.8,2.3,0.8,3.6c0,1-0.1,1.8-0.4,2.4c-0.2,0.6-0.6,1-1,1.2c-0.4,0.3-0.9,0.4-1.4,0.5c-0.5,0.1-1,0.1-1.6,0.1h-9.5v0.7
			c0,1.4,0.5,2.5,1.5,3.3c1,0.8,2.3,1.2,4,1.2c0.8,0,1.5-0.1,2-0.3c0.6-0.2,1.1-0.4,1.5-0.6c0.4-0.2,0.8-0.4,1.2-0.6
			c0.4-0.2,0.7-0.3,1.1-0.3c0.3,0,0.7,0.1,0.9,0.3c0.3,0.2,0.5,0.4,0.7,0.7c0.2,0.3,0.4,0.6,0.5,0.9c0.1,0.3,0.2,0.6,0.2,0.8
			c0,0.4-0.2,0.8-0.6,1.3c-0.4,0.5-0.9,0.9-1.7,1.3c-0.7,0.4-1.6,0.7-2.6,1c-1,0.3-2.2,0.4-3.4,0.4c-1.7,0-3.2-0.2-4.6-0.7
			c-1.4-0.5-2.6-1.1-3.6-2c-1-0.8-1.8-1.9-2.4-3.1c-0.6-1.2-0.8-2.5-0.8-3.9v-4c0-1.3,0.3-2.5,0.8-3.6c0.5-1.1,1.3-2.1,2.2-3
			c0.9-0.9,2-1.5,3.3-2C124.8,49.4,126.2,49.1,127.6,49.1z M130.3,58.6c0.5,0,0.9-0.1,1.1-0.2c0.2-0.2,0.3-0.5,0.3-1
			c0-1.1-0.4-2-1.2-2.7c-0.8-0.7-1.8-1-2.9-1c-1.1,0-2,0.3-2.8,1c-0.8,0.7-1.2,1.6-1.2,2.7v1.3H130.3z"/>
		<path fill="#FFFFFF" d="M148.4,49.1c1.8,0,3.4,0.3,4.7,0.8c1.3,0.5,2.3,1.2,3.1,2c0.8,0.8,1.4,1.8,1.8,2.9
			c0.4,1.1,0.5,2.2,0.5,3.4v11.5c0,0.5-0.3,1-0.8,1.4c-0.6,0.4-1.3,0.6-2.1,0.6c-0.8,0-1.4-0.2-2-0.6s-0.8-0.8-0.8-1.4v-1.4
			c-0.8,1-1.8,1.8-3,2.6c-1.1,0.8-2.5,1.1-4.2,1.1c-0.8,0-1.6-0.1-2.4-0.4c-0.7-0.3-1.4-0.6-1.9-1.2c-0.5-0.5-1-1.2-1.3-2
			c-0.3-0.8-0.5-1.7-0.5-2.8c0-1.3,0.3-2.5,0.8-3.4c0.5-0.9,1.3-1.6,2.2-2.1c1-0.5,2.1-0.9,3.5-1.1c1.3-0.2,2.8-0.3,4.5-0.3h1.9
			v-0.6c0-0.5-0.1-1-0.2-1.5c-0.1-0.5-0.4-1-0.7-1.4c-0.3-0.4-0.8-0.7-1.3-1c-0.5-0.3-1.2-0.4-2-0.4c-0.9,0-1.6,0.1-2.2,0.2
			c-0.6,0.2-1,0.3-1.4,0.5c-0.4,0.2-0.7,0.3-0.9,0.5c-0.3,0.2-0.5,0.2-0.8,0.2c-0.7,0-1.2-0.3-1.6-1c-0.3-0.7-0.5-1.3-0.5-2
			c0-0.5,0.2-0.9,0.7-1.3c0.5-0.4,1.1-0.8,1.8-1.1c0.7-0.3,1.5-0.5,2.4-0.7C146.7,49.2,147.6,49.1,148.4,49.1z M152.5,62.1h-0.7
			c-0.8,0-1.5,0-2.3,0.1c-0.7,0.1-1.4,0.2-2,0.4c-0.6,0.2-1,0.5-1.4,0.9c-0.3,0.4-0.5,0.9-0.5,1.6c0,0.9,0.2,1.5,0.7,1.9
			c0.5,0.4,1.1,0.6,1.8,0.6c0.5,0,1-0.1,1.5-0.4c0.5-0.3,1-0.6,1.4-1s0.8-0.9,1-1.5c0.3-0.5,0.4-1.1,0.4-1.7V62.1z"/>
		<path fill="#FFFFFF" d="M179.7,36.4c0.9,0,1.6,0.2,2.2,0.5c0.6,0.3,0.8,0.8,0.8,1.4v31.5c0,0.5-0.3,0.9-0.8,1.3
			c-0.6,0.4-1.3,0.6-2.2,0.6c-0.8,0-1.4-0.2-1.9-0.6c-0.5-0.4-0.8-0.8-0.8-1.3v-1.4c-0.5,1-1.3,1.8-2.5,2.6c-1.2,0.8-2.5,1.1-4,1.1
			c-1.1,0-2.1-0.3-3.1-0.8s-1.9-1.2-2.6-2.1s-1.4-1.9-1.8-3.1s-0.7-2.4-0.7-3.6v-3.9c0-1.3,0.2-2.5,0.7-3.7c0.4-1.1,1-2.2,1.8-3
			c0.8-0.9,1.6-1.6,2.7-2.1c1-0.5,2.1-0.8,3.3-0.8c1.5,0,2.7,0.4,3.7,1.1c1,0.7,1.8,1.6,2.3,2.5V38.3c0-0.6,0.3-1,0.9-1.4
			C178.2,36.5,178.9,36.4,179.7,36.4z M168.3,62.5c0,0.5,0.1,1.1,0.3,1.6c0.2,0.5,0.5,1,0.9,1.4c0.4,0.4,0.8,0.7,1.3,1
			c0.5,0.3,1,0.4,1.6,0.4c0.6,0,1.2-0.1,1.7-0.4c0.5-0.3,1-0.6,1.4-1s0.7-0.8,0.9-1.2c0.2-0.4,0.3-0.7,0.3-1v-4.7
			c0-0.7-0.1-1.2-0.4-1.8s-0.6-1-1-1.3c-0.4-0.4-0.9-0.7-1.4-0.8c-0.5-0.2-1-0.3-1.5-0.3c-0.6,0-1.1,0.1-1.6,0.4
			c-0.5,0.2-0.9,0.6-1.3,1c-0.4,0.4-0.7,0.9-0.9,1.4c-0.2,0.5-0.3,1-0.3,1.6V62.5z"/>
		<path fill="#FFFFFF" d="M40.4,101.1c0,0.9,0.2,1.6,0.6,1.9c0.4,0.4,1.1,0.6,2.1,0.6h1.8c0.9,0,1.5,0.3,2,0.8
			c0.4,0.5,0.6,1.1,0.6,1.7c0,0.7-0.2,1.3-0.6,1.8c-0.4,0.5-1.1,0.8-2,0.8H43c-2.9,0-5-0.6-6.5-1.8c-1.5-1.2-2.2-3.1-2.2-5.8V78.3
			c0-0.6,0.3-1,1-1.4c0.6-0.3,1.3-0.5,2-0.5c0.8,0,1.5,0.2,2.1,0.5c0.6,0.3,0.9,0.8,0.9,1.4v8.1h5.5c0.5,0,0.9,0.2,1.2,0.7
			c0.3,0.5,0.4,1,0.4,1.5c0,0.6-0.1,1.1-0.4,1.5c-0.3,0.5-0.7,0.7-1.2,0.7h-5.5V101.1z"/>
		<path fill="#FFFFFF" d="M56.8,106.8c0,0.5-0.3,0.9-0.9,1.3c-0.6,0.4-1.3,0.6-2.1,0.6c-0.9,0-1.6-0.2-2.2-0.6
			c-0.5-0.4-0.8-0.8-0.8-1.3V75.3c0-0.6,0.3-1,0.8-1.4c0.5-0.3,1.3-0.5,2.2-0.5c0.8,0,1.5,0.2,2.1,0.5c0.6,0.3,0.9,0.8,0.9,1.4v14.4
			c0.4-0.9,1.2-1.7,2.2-2.5c1-0.7,2.3-1.1,3.8-1.1c1.1,0,2.1,0.2,3.1,0.8c1,0.5,1.8,1.2,2.6,2.1c0.7,0.9,1.3,1.9,1.8,3
			c0.4,1.1,0.7,2.4,0.7,3.7v11.1c0,0.6-0.3,1.1-1,1.4c-0.6,0.3-1.3,0.5-2.1,0.5c-0.7,0-1.4-0.2-2-0.5c-0.6-0.3-1-0.8-1-1.4V95.7
			c0-0.5-0.1-1-0.3-1.6c-0.2-0.5-0.5-1-0.9-1.4s-0.8-0.7-1.3-1c-0.5-0.2-1-0.4-1.6-0.4c-1,0-1.9,0.4-2.7,1.1
			c-0.8,0.8-1.2,1.8-1.2,3.1V106.8z"/>
		<path fill="#FFFFFF" d="M84.8,86.1c1.3,0,2.5,0.2,3.7,0.7c1.2,0.4,2.2,1,3.1,1.8s1.6,1.7,2.1,2.8c0.5,1.1,0.8,2.3,0.8,3.6
			c0,1-0.1,1.8-0.4,2.3c-0.3,0.6-0.6,1-1,1.2c-0.4,0.3-0.9,0.4-1.4,0.5c-0.5,0.1-1,0.1-1.6,0.1h-9.5v0.7c0,1.4,0.5,2.5,1.5,3.3
			c1,0.8,2.3,1.2,4,1.2c0.8,0,1.5-0.1,2-0.3c0.6-0.2,1.1-0.4,1.5-0.6c0.4-0.2,0.8-0.4,1.2-0.6c0.4-0.2,0.7-0.3,1.1-0.3
			c0.3,0,0.7,0.1,0.9,0.3c0.3,0.2,0.5,0.4,0.7,0.7c0.2,0.3,0.4,0.6,0.5,0.9c0.1,0.3,0.2,0.6,0.2,0.8c0,0.4-0.2,0.8-0.6,1.3
			c-0.4,0.5-0.9,0.9-1.7,1.3c-0.7,0.4-1.6,0.7-2.6,1c-1,0.3-2.2,0.4-3.4,0.4c-1.7,0-3.2-0.2-4.6-0.7c-1.4-0.5-2.6-1.1-3.6-2
			c-1-0.8-1.8-1.9-2.4-3.1s-0.8-2.5-0.8-3.9v-4c0-1.3,0.3-2.5,0.8-3.6c0.5-1.1,1.3-2.1,2.2-3c0.9-0.9,2-1.5,3.3-2
			C82,86.4,83.3,86.1,84.8,86.1z M87.4,95.6c0.5,0,0.9-0.1,1.1-0.2c0.2-0.2,0.3-0.5,0.3-1c0-1.1-0.4-2-1.2-2.7c-0.8-0.7-1.8-1-2.9-1
			c-1.1,0-2,0.3-2.8,1c-0.8,0.7-1.2,1.6-1.2,2.7v1.3H87.4z"/>
		<path fill="#FFFFFF" d="M129.9,108.2c-0.2,0.4-0.5,0.7-0.9,0.8c-0.5,0.2-0.9,0.2-1.5,0.2c-0.6,0-1.1-0.1-1.6-0.3
			c-0.5-0.2-0.8-0.5-0.9-0.8l-3.6-10.2l-3.6,10.2c-0.2,0.4-0.5,0.7-1,0.8c-0.5,0.2-1,0.3-1.6,0.3c-0.5,0-1-0.1-1.4-0.2
			c-0.5-0.2-0.8-0.5-0.9-0.9l-7.2-18.6c-0.2-0.3-0.2-0.6-0.2-0.9c0-0.4,0.1-0.7,0.4-1c0.3-0.3,0.6-0.6,1-0.8
			c0.4-0.2,0.8-0.4,1.3-0.5c0.5-0.1,0.9-0.2,1.3-0.2s0.8,0.1,1.1,0.2c0.3,0.2,0.5,0.4,0.7,0.8l4.7,13.3l3.5-11.6
			c0.2-0.5,0.4-0.9,0.8-1s0.8-0.2,1.3-0.2c0.4,0,0.9,0.1,1.2,0.2c0.4,0.1,0.7,0.5,0.8,1l3.5,11.7l4.7-13.4c0.2-0.7,0.8-1,1.7-1
			c0.4,0,0.8,0.1,1.2,0.2c0.5,0.1,0.9,0.3,1.3,0.5c0.4,0.2,0.7,0.5,1,0.8c0.3,0.3,0.4,0.7,0.4,1c0,0.3-0.1,0.6-0.2,0.8L129.9,108.2z
			"/>
		<path fill="#FFFFFF" d="M149.4,86.1c1.3,0,2.6,0.2,3.9,0.8c1.2,0.5,2.3,1.2,3.3,2.1c0.9,0.9,1.7,1.9,2.2,3
			c0.5,1.1,0.8,2.4,0.8,3.7v3.9c0,1.3-0.3,2.5-0.8,3.6s-1.3,2.2-2.2,3.1c-0.9,0.9-2,1.6-3.3,2.1c-1.2,0.5-2.5,0.8-3.9,0.8
			c-1.4,0-2.7-0.3-3.9-0.8c-1.2-0.5-2.3-1.2-3.2-2.1c-0.9-0.9-1.7-1.9-2.2-3.1s-0.8-2.4-0.8-3.7v-3.9c0-1.3,0.3-2.5,0.8-3.6
			c0.5-1.2,1.3-2.2,2.2-3.1c0.9-0.9,2-1.6,3.2-2.1C146.6,86.4,148,86.1,149.4,86.1z M153.5,95.7c0-0.5-0.1-1-0.3-1.6
			c-0.2-0.5-0.5-1-0.9-1.4s-0.8-0.7-1.3-1s-1-0.4-1.6-0.4c-0.6,0-1.1,0.1-1.6,0.4c-0.5,0.2-0.9,0.6-1.3,1s-0.7,0.9-0.9,1.4
			c-0.2,0.5-0.3,1-0.3,1.6v3.9c0,0.6,0.1,1.1,0.3,1.6c0.2,0.5,0.5,1,0.9,1.4c0.4,0.4,0.8,0.7,1.3,1c0.5,0.3,1,0.4,1.6,0.4
			c0.6,0,1.1-0.1,1.6-0.4s0.9-0.6,1.3-1c0.4-0.4,0.7-0.8,0.9-1.4c0.2-0.5,0.3-1.1,0.3-1.6V95.7z"/>
		<path fill="#FFFFFF" d="M174.9,91.4c-0.7,0-1.4,0.2-2,0.5c-0.6,0.3-1.2,0.8-1.7,1.4c-0.5,0.6-0.9,1.3-1.2,2.2
			c-0.3,0.9-0.5,1.8-0.5,2.9v8.4c0,0.5-0.3,0.9-0.9,1.3c-0.6,0.4-1.3,0.6-2.2,0.6c-0.9,0-1.6-0.2-2.1-0.6c-0.5-0.4-0.8-0.8-0.8-1.3
			V88.3c0-0.6,0.3-1,0.8-1.4c0.5-0.3,1.3-0.5,2.1-0.5c0.8,0,1.4,0.2,1.9,0.5c0.5,0.3,0.8,0.8,0.8,1.4v1.9c0.2-0.5,0.5-1,0.9-1.5
			c0.4-0.5,0.8-0.9,1.3-1.3c0.5-0.4,1-0.7,1.6-0.9c0.6-0.2,1.2-0.4,1.9-0.4h1.5c0.6,0,1.1,0.3,1.5,0.8c0.5,0.5,0.7,1.1,0.7,1.9
			c0,0.7-0.2,1.3-0.7,1.9c-0.5,0.5-1,0.8-1.5,0.8H174.9z"/>
		<path fill="#FFFFFF" d="M197.4,73.4c0.9,0,1.6,0.2,2.2,0.5c0.6,0.3,0.8,0.8,0.8,1.4v31.5c0,0.5-0.3,0.9-0.8,1.3
			c-0.6,0.4-1.3,0.6-2.2,0.6c-0.8,0-1.4-0.2-1.9-0.6c-0.5-0.4-0.8-0.8-0.8-1.3v-1.4c-0.5,1-1.3,1.8-2.5,2.6c-1.2,0.8-2.5,1.1-4,1.1
			c-1.1,0-2.1-0.3-3.1-0.8s-1.9-1.2-2.6-2.1c-0.8-0.9-1.4-1.9-1.8-3.1s-0.7-2.4-0.7-3.6v-3.9c0-1.3,0.2-2.5,0.7-3.7
			c0.4-1.1,1-2.2,1.8-3c0.8-0.9,1.6-1.6,2.7-2.1c1-0.5,2.1-0.8,3.3-0.8c1.5,0,2.7,0.4,3.7,1.1c1,0.7,1.8,1.6,2.3,2.5V75.3
			c0-0.6,0.3-1,0.9-1.4C195.8,73.5,196.5,73.4,197.4,73.4z M185.9,99.5c0,0.5,0.1,1.1,0.3,1.6c0.2,0.5,0.5,1,0.9,1.4s0.8,0.7,1.3,1
			c0.5,0.3,1,0.4,1.6,0.4c0.6,0,1.2-0.1,1.7-0.4c0.5-0.3,1-0.6,1.4-1s0.7-0.8,0.9-1.2c0.2-0.4,0.3-0.7,0.3-1v-4.7
			c0-0.7-0.1-1.2-0.4-1.8c-0.3-0.5-0.6-1-1-1.3c-0.4-0.4-0.9-0.7-1.4-0.8c-0.5-0.2-1-0.3-1.5-0.3c-0.6,0-1.1,0.1-1.6,0.4
			c-0.5,0.2-0.9,0.6-1.3,1s-0.7,0.9-0.9,1.4c-0.2,0.5-0.3,1-0.3,1.6V99.5z"/>
	</g>
</g>
</svg>
