<?xml version="1.0" encoding="utf-8"?>
<!-- Generator: Adobe Illustrator 18.1.1, SVG Export Plug-In . SVG Version: 6.00 Build 0)  -->
<svg version="1.1" id="Layer_1" xmlns="http://www.w3.org/2000/svg" xmlns:xlink="http://www.w3.org/1999/xlink" x="0px" y="0px"
	 viewBox="0 0 100 100" enable-background="new 0 0 100 100" xml:space="preserve">
<g>
	<path fill="#34C4F3" d="M99.7,77.3c0,12.3-10,22.3-22.3,22.3H22.8c-12.3,0-22.3-10-22.3-22.3V22.7c0-12.3,10-22.3,22.3-22.3h54.7
		c12.3,0,22.3,10,22.3,22.3V77.3z"/>
	<path fill-rule="evenodd" clip-rule="evenodd" fill="#FFFFFF" d="M40.9,62.6c-5.9-0.2-9.5-4.4-10.5-7.8c1.6,0.3,3.2,0.2,4.8-0.1
		c0,0,0.1,0,0.2-0.1c-3.2-0.7-5.6-2.4-7.3-5.2c-1.1-1.8-1.7-3.8-1.7-6c1.6,0.8,3.2,1.3,5,1.4c-2.4-1.7-4-4-4.6-6.8
		c-0.7-2.9-0.2-5.6,1.2-8.2c6.1,7.2,13.8,11.1,23.3,11.8c-0.1-0.4-0.1-0.8-0.2-1.2c-0.3-2.7,0.2-5.1,1.6-7.4
		c1.8-2.8,4.4-4.6,7.6-5.1c3.8-0.6,7.1,0.5,9.9,3.1c0.2,0.2,0.3,0.2,0.6,0.2c2.3-0.5,4.5-1.3,6.6-2.5c0.1,0,0.1-0.1,0.2-0.1
		c0,0,0,0,0.1,0c-0.9,2.6-2.5,4.6-4.8,6.1c2.2-0.2,4.3-0.8,6.3-1.7c0,0,0,0,0,0.1c-0.4,0.6-0.8,1.1-1.3,1.7
		c-1.2,1.5-2.6,2.8-4.1,3.9c-0.1,0.1-0.2,0.2-0.2,0.4c0.1,1.7,0,3.3-0.2,5c-0.4,3.5-1.4,6.8-2.9,10c-1.5,3.3-3.6,6.3-6.1,8.9
		c-4.3,4.4-9.5,7.3-15.5,8.6c-2.1,0.5-4.2,0.7-6.3,0.7c-6.5,0.2-12.5-1.4-18-4.8c-0.1,0-0.1-0.1-0.3-0.2c3.9,0.4,7.7-0.1,11.3-1.6
		C37.4,65,39.2,63.9,40.9,62.6z"/>
</g>
</svg>
