<?xml version="1.0" encoding="utf-8"?>
<!-- Generator: Adobe Illustrator 18.1.1, SVG Export Plug-In . SVG Version: 6.00 Build 0)  -->
<svg version="1.1" id="Layer_1" xmlns="http://www.w3.org/2000/svg" xmlns:xlink="http://www.w3.org/1999/xlink" x="0px" y="0px"
	 viewBox="50.5 0 143.8 47" enable-background="new 50.5 0 143.8 47" xml:space="preserve">
<rect x="57.2" y="2" fill="none" width="494.2" height="226.1"/>
<g>
	<path fill="#7BC46F" d="M85.4,3.3c0-0.1,0-0.1,0-0.2c0-0.2,0.1-0.4,0.3-0.5c0.2-0.1,0.4-0.2,0.6-0.2c0.3,0,0.5,0.1,0.6,0.4
		l3.3,11.3l3.3-11.3c0.1-0.2,0.3-0.4,0.6-0.4c0.2,0,0.4,0.1,0.7,0.2C95,2.8,95.1,3,95.1,3.2c0,0,0,0,0,0.1c0,0,0,0,0,0.1L91.2,16
		c-0.1,0.2-0.2,0.3-0.4,0.4c-0.2,0.1-0.4,0.1-0.6,0.1c-0.2,0-0.4,0-0.6-0.1s-0.3-0.2-0.4-0.4L85.4,3.3z"/>
	<path fill="#7BC46F" d="M99,7.3c0.5,0,1,0.1,1.4,0.3s0.9,0.5,1.2,0.8c0.3,0.3,0.6,0.7,0.8,1.2s0.3,0.9,0.3,1.4v1.9
		c0,0.5-0.1,0.9-0.3,1.4s-0.5,0.8-0.8,1.2c-0.3,0.3-0.7,0.6-1.2,0.8c-0.5,0.2-0.9,0.3-1.4,0.3c-0.5,0-1-0.1-1.4-0.3
		c-0.4-0.2-0.8-0.5-1.2-0.8c-0.3-0.3-0.6-0.7-0.8-1.2s-0.3-0.9-0.3-1.4v-1.9c0-0.5,0.1-0.9,0.3-1.4c0.2-0.4,0.5-0.8,0.8-1.2
		c0.3-0.3,0.7-0.6,1.2-0.8C98,7.4,98.5,7.3,99,7.3z M101.2,10.9c0-0.3-0.1-0.6-0.2-0.8c-0.1-0.3-0.3-0.5-0.5-0.7s-0.4-0.4-0.7-0.5
		S99.3,8.7,99,8.7s-0.6,0.1-0.9,0.2s-0.5,0.3-0.7,0.5s-0.3,0.4-0.5,0.7c-0.1,0.3-0.2,0.5-0.2,0.8v1.9c0,0.3,0.1,0.6,0.2,0.8
		c0.1,0.3,0.3,0.5,0.5,0.7c0.2,0.2,0.4,0.4,0.7,0.5s0.5,0.2,0.8,0.2s0.6-0.1,0.8-0.2c0.3-0.1,0.5-0.3,0.7-0.5s0.4-0.4,0.5-0.7
		c0.1-0.3,0.2-0.6,0.2-0.8V10.9z"/>
	<path fill="#7BC46F" d="M108.1,7.3c0.5,0,0.9,0.1,1.4,0.3c0.4,0.2,0.8,0.4,1.2,0.7c0.3,0.3,0.6,0.7,0.8,1.1
		c0.2,0.4,0.3,0.9,0.3,1.4c0,0.4,0,0.7-0.1,0.9c-0.1,0.2-0.2,0.4-0.4,0.5c-0.2,0.1-0.3,0.2-0.5,0.2s-0.4,0-0.6,0h-4.2v0.6
		c0,0.7,0.2,1.3,0.8,1.7s1.1,0.6,1.9,0.6c0.4,0,0.7,0,0.9-0.1s0.4-0.2,0.6-0.3c0.2-0.1,0.3-0.2,0.4-0.3c0.1-0.1,0.2-0.1,0.4-0.1
		c0.2,0,0.3,0.1,0.5,0.3s0.2,0.3,0.2,0.5c0,0.1-0.1,0.3-0.2,0.4c-0.1,0.2-0.3,0.3-0.6,0.4c-0.3,0.1-0.6,0.3-0.9,0.4
		c-0.4,0.1-0.8,0.1-1.2,0.1c-0.6,0-1.2-0.1-1.7-0.3c-0.5-0.2-1-0.4-1.3-0.8c-0.4-0.3-0.7-0.7-0.9-1.2s-0.3-1-0.3-1.5v-2
		c0-0.5,0.1-0.9,0.3-1.4c0.2-0.4,0.5-0.8,0.8-1.1c0.3-0.3,0.7-0.6,1.2-0.8S107.6,7.3,108.1,7.3z M109.4,11.3c0.3,0,0.6,0,0.7-0.1
		c0.1-0.1,0.2-0.2,0.2-0.5c0-0.3-0.1-0.5-0.2-0.8c-0.1-0.3-0.3-0.5-0.4-0.7s-0.4-0.4-0.7-0.5c-0.3-0.1-0.6-0.2-0.9-0.2
		c-0.3,0-0.6,0.1-0.8,0.2c-0.3,0.1-0.5,0.3-0.7,0.4c-0.2,0.2-0.4,0.4-0.5,0.7c-0.1,0.3-0.2,0.5-0.2,0.8v0.7H109.4z"/>
	<path fill="#7BC46F" d="M116.6,14.2c-0.5,0-1-0.1-1.4-0.3c-0.1,0.1-0.2,0.2-0.3,0.3c-0.1,0.1-0.1,0.2-0.1,0.4
		c0,0.3,0.1,0.5,0.4,0.6c0.3,0.1,0.7,0.2,1.1,0.2c0.4,0.1,0.9,0.1,1.4,0.2c0.5,0.1,1,0.2,1.4,0.3c0.4,0.2,0.8,0.4,1.1,0.7
		c0.3,0.3,0.4,0.8,0.4,1.4c0,0.5-0.1,0.9-0.3,1.2c-0.2,0.3-0.5,0.6-0.8,0.9c-0.3,0.2-0.8,0.4-1.2,0.5c-0.5,0.1-1,0.2-1.5,0.2
		c-0.6,0-1.1-0.1-1.6-0.2c-0.5-0.1-0.9-0.3-1.2-0.5c-0.3-0.2-0.6-0.5-0.8-0.8c-0.2-0.3-0.3-0.7-0.3-1.1c0-0.5,0.2-1,0.5-1.3
		s0.7-0.6,1.1-0.8c-0.3-0.1-0.5-0.2-0.7-0.4s-0.3-0.5-0.3-0.8c0-0.4,0.1-0.6,0.3-0.8s0.4-0.4,0.7-0.6c-0.3-0.3-0.6-0.6-0.8-1
		s-0.3-0.9-0.3-1.4v-0.6c0-0.5,0.1-0.9,0.2-1.3c0.2-0.4,0.4-0.7,0.7-1c0.3-0.3,0.6-0.5,1.1-0.6s0.9-0.2,1.4-0.2
		c0.4,0,0.9,0.1,1.2,0.2c0.4,0.1,0.7,0.3,1,0.5c0.2-0.4,0.4-0.7,0.6-0.9s0.4-0.3,0.7-0.3s0.4,0.1,0.5,0.2s0.2,0.3,0.2,0.4
		c0,0.1,0,0.2-0.1,0.3c-0.1,0.1-0.1,0.1-0.2,0.2c-0.1,0-0.3,0.1-0.5,0.2c-0.2,0.1-0.4,0.3-0.5,0.6c0.2,0.2,0.4,0.5,0.4,0.8
		c0.1,0.3,0.1,0.6,0.1,1V11c0,0.5-0.1,0.9-0.3,1.3s-0.4,0.7-0.7,1s-0.7,0.5-1.1,0.7S117.1,14.2,116.6,14.2z M119,18
		c0-0.4-0.1-0.6-0.3-0.8c-0.2-0.2-0.5-0.3-0.8-0.4c-0.3-0.1-0.7-0.2-1.1-0.2c-0.4,0-0.7-0.1-1-0.1c-0.4,0.1-0.8,0.3-1.1,0.6
		c-0.3,0.2-0.4,0.6-0.4,1c0,0.5,0.2,0.9,0.7,1.2c0.4,0.3,1,0.4,1.8,0.4c0.7,0,1.3-0.1,1.7-0.4C118.8,18.9,119,18.5,119,18z
		 M118.5,10.4c0-0.6-0.2-1.1-0.5-1.5c-0.3-0.4-0.8-0.6-1.4-0.6c-0.6,0-1.1,0.2-1.4,0.6c-0.3,0.4-0.5,0.9-0.5,1.5V11
		c0,0.6,0.2,1.1,0.5,1.5c0.3,0.4,0.8,0.6,1.4,0.6c0.6,0,1-0.2,1.4-0.6c0.3-0.4,0.5-0.9,0.5-1.5V10.4z"/>
	<path fill="#7BC46F" d="M127.5,13.5c0,0.5,0.1,0.9,0.3,1.1c0.2,0.2,0.6,0.3,1.2,0.3h0.6c0.2,0,0.4,0.1,0.5,0.2
		c0.1,0.1,0.2,0.3,0.2,0.5c0,0.2-0.1,0.3-0.2,0.5c-0.1,0.1-0.3,0.2-0.5,0.2h-0.6c-1,0-1.8-0.2-2.3-0.7c-0.5-0.5-0.8-1.2-0.8-2.2V3.7
		c0-0.2,0.1-0.3,0.3-0.4c0.2-0.1,0.3-0.2,0.5-0.2c0.2,0,0.4,0.1,0.6,0.2c0.2,0.1,0.2,0.2,0.2,0.4v3.6h2.4c0.1,0,0.3,0.1,0.3,0.2
		c0.1,0.1,0.1,0.3,0.1,0.4s0,0.3-0.1,0.4c-0.1,0.1-0.2,0.2-0.3,0.2h-2.4V13.5z"/>
	<path fill="#7BC46F" d="M135.1,7.3c0.5,0,1,0.1,1.4,0.3s0.9,0.5,1.2,0.8c0.3,0.3,0.6,0.7,0.8,1.2s0.3,0.9,0.3,1.4v1.9
		c0,0.5-0.1,0.9-0.3,1.4s-0.5,0.8-0.8,1.2c-0.3,0.3-0.7,0.6-1.2,0.8c-0.5,0.2-0.9,0.3-1.4,0.3c-0.5,0-1-0.1-1.4-0.3
		c-0.4-0.2-0.8-0.5-1.2-0.8c-0.3-0.3-0.6-0.7-0.8-1.2s-0.3-0.9-0.3-1.4v-1.9c0-0.5,0.1-0.9,0.3-1.4c0.2-0.4,0.5-0.8,0.8-1.2
		c0.3-0.3,0.7-0.6,1.2-0.8C134.1,7.4,134.6,7.3,135.1,7.3z M137.3,10.9c0-0.3-0.1-0.6-0.2-0.8c-0.1-0.3-0.3-0.5-0.5-0.7
		S136.2,9,136,8.9s-0.6-0.2-0.9-0.2s-0.6,0.1-0.9,0.2s-0.5,0.3-0.7,0.5s-0.3,0.4-0.5,0.7c-0.1,0.3-0.2,0.5-0.2,0.8v1.9
		c0,0.3,0.1,0.6,0.2,0.8c0.1,0.3,0.3,0.5,0.5,0.7c0.2,0.2,0.4,0.4,0.7,0.5s0.5,0.2,0.8,0.2s0.6-0.1,0.8-0.2c0.3-0.1,0.5-0.3,0.7-0.5
		s0.4-0.4,0.5-0.7c0.1-0.3,0.2-0.6,0.2-0.8V10.9z"/>
	<path fill="#7BC46F" d="M144.2,7.3c0.5,0,0.9,0.1,1.4,0.3c0.4,0.2,0.8,0.4,1.2,0.7c0.3,0.3,0.6,0.7,0.8,1.1
		c0.2,0.4,0.3,0.9,0.3,1.4c0,0.4,0,0.7-0.1,0.9c-0.1,0.2-0.2,0.4-0.4,0.5c-0.2,0.1-0.3,0.2-0.5,0.2s-0.4,0-0.6,0H142v0.6
		c0,0.7,0.2,1.3,0.8,1.7s1.1,0.6,1.9,0.6c0.4,0,0.7,0,0.9-0.1s0.4-0.2,0.6-0.3c0.2-0.1,0.3-0.2,0.4-0.3c0.1-0.1,0.2-0.1,0.4-0.1
		c0.2,0,0.3,0.1,0.5,0.3s0.2,0.3,0.2,0.5c0,0.1-0.1,0.3-0.2,0.4c-0.1,0.2-0.3,0.3-0.6,0.4c-0.3,0.1-0.6,0.3-0.9,0.4
		c-0.4,0.1-0.8,0.1-1.2,0.1c-0.6,0-1.2-0.1-1.7-0.3c-0.5-0.2-1-0.4-1.3-0.8c-0.4-0.3-0.7-0.7-0.9-1.2s-0.3-1-0.3-1.5v-2
		c0-0.5,0.1-0.9,0.3-1.4c0.2-0.4,0.5-0.8,0.8-1.1c0.3-0.3,0.7-0.6,1.2-0.8S143.7,7.3,144.2,7.3z M145.5,11.3c0.3,0,0.6,0,0.7-0.1
		c0.1-0.1,0.2-0.2,0.2-0.5c0-0.3-0.1-0.5-0.2-0.8c-0.1-0.3-0.3-0.5-0.4-0.7s-0.4-0.4-0.7-0.5c-0.3-0.1-0.6-0.2-0.9-0.2
		c-0.3,0-0.6,0.1-0.8,0.2c-0.3,0.1-0.5,0.3-0.7,0.4c-0.2,0.2-0.4,0.4-0.5,0.7c-0.1,0.3-0.2,0.5-0.2,0.8v0.7H145.5z"/>
	<path fill="#7BC46F" d="M156.1,7.3c0.7,0,1.2,0.1,1.7,0.3c0.5,0.2,0.8,0.5,1.1,0.8c0.3,0.3,0.5,0.7,0.6,1.2
		c0.1,0.4,0.2,0.9,0.2,1.4v4.9c0,0.2-0.1,0.3-0.2,0.4c-0.1,0.1-0.3,0.2-0.6,0.2c-0.2,0-0.4-0.1-0.5-0.2c-0.1-0.1-0.2-0.2-0.2-0.4
		v-0.8c-0.3,0.4-0.7,0.7-1.2,1c-0.5,0.3-1,0.5-1.7,0.5c-0.4,0-0.7-0.1-1-0.2s-0.6-0.3-0.8-0.5s-0.4-0.5-0.6-0.8
		c-0.1-0.3-0.2-0.7-0.2-1.1c0-0.5,0.1-1,0.3-1.3c0.2-0.3,0.5-0.6,0.9-0.8s0.9-0.3,1.4-0.4c0.5-0.1,1.1-0.1,1.8-0.1h0.9V11
		c0-0.3,0-0.6-0.1-0.8c-0.1-0.3-0.2-0.5-0.4-0.8c-0.2-0.2-0.4-0.4-0.6-0.6c-0.3-0.1-0.6-0.2-1-0.2c-0.3,0-0.6,0-0.8,0.1
		c-0.2,0.1-0.4,0.1-0.6,0.2c-0.2,0.1-0.3,0.1-0.4,0.2c-0.1,0.1-0.2,0.1-0.3,0.1c-0.2,0-0.3-0.1-0.4-0.3s-0.2-0.4-0.2-0.5
		c0-0.2,0.1-0.3,0.2-0.4c0.2-0.1,0.4-0.2,0.6-0.4s0.5-0.2,0.9-0.2C155.5,7.3,155.8,7.3,156.1,7.3z M158.2,12.4h-0.7
		c-0.4,0-0.8,0-1.2,0c-0.4,0-0.7,0.1-1,0.2s-0.5,0.2-0.7,0.4c-0.2,0.2-0.3,0.5-0.3,0.8c0,0.5,0.1,0.9,0.4,1.1s0.6,0.3,1,0.3
		c0.3,0,0.5-0.1,0.8-0.2c0.3-0.1,0.5-0.3,0.7-0.5c0.2-0.2,0.4-0.4,0.5-0.6s0.2-0.4,0.2-0.7V12.4z"/>
	<path fill="#7BC46F" d="M164.6,7.3c0.7,0,1.2,0.1,1.7,0.3c0.5,0.2,0.8,0.5,1.1,0.8c0.3,0.3,0.5,0.7,0.6,1.2
		c0.1,0.4,0.2,0.9,0.2,1.4v4.9c0,0.2-0.1,0.3-0.2,0.4c-0.1,0.1-0.3,0.2-0.6,0.2c-0.2,0-0.4-0.1-0.5-0.2c-0.1-0.1-0.2-0.2-0.2-0.4
		v-0.8c-0.3,0.4-0.7,0.7-1.2,1c-0.5,0.3-1,0.5-1.7,0.5c-0.4,0-0.7-0.1-1-0.2s-0.6-0.3-0.8-0.5s-0.4-0.5-0.6-0.8
		c-0.1-0.3-0.2-0.7-0.2-1.1c0-0.5,0.1-1,0.3-1.3c0.2-0.3,0.5-0.6,0.9-0.8s0.9-0.3,1.4-0.4c0.5-0.1,1.1-0.1,1.8-0.1h0.9V11
		c0-0.3,0-0.6-0.1-0.8c-0.1-0.3-0.2-0.5-0.4-0.8c-0.2-0.2-0.4-0.4-0.6-0.6c-0.3-0.1-0.6-0.2-1-0.2c-0.3,0-0.6,0-0.8,0.1
		c-0.2,0.1-0.4,0.1-0.6,0.2C163,9,162.9,9,162.8,9.1c-0.1,0.1-0.2,0.1-0.3,0.1c-0.2,0-0.3-0.1-0.4-0.3s-0.2-0.4-0.2-0.5
		c0-0.2,0.1-0.3,0.2-0.4c0.2-0.1,0.4-0.2,0.6-0.4s0.5-0.2,0.9-0.2C164,7.3,164.3,7.3,164.6,7.3z M166.7,12.4H166c-0.4,0-0.8,0-1.2,0
		c-0.4,0-0.7,0.1-1,0.2s-0.5,0.2-0.7,0.4c-0.2,0.2-0.3,0.5-0.3,0.8c0,0.5,0.1,0.9,0.4,1.1s0.6,0.3,1,0.3c0.3,0,0.5-0.1,0.8-0.2
		c0.3-0.1,0.5-0.3,0.7-0.5c0.2-0.2,0.4-0.4,0.5-0.6s0.2-0.4,0.2-0.7V12.4z"/>
	<path fill="#7BC46F" d="M172,15.8c0,0.1-0.1,0.3-0.2,0.4c-0.2,0.1-0.3,0.2-0.6,0.2c-0.2,0-0.4-0.1-0.6-0.2
		c-0.1-0.1-0.2-0.2-0.2-0.4V7.9c0-0.2,0.1-0.3,0.2-0.4c0.1-0.1,0.3-0.2,0.6-0.2c0.2,0,0.4,0.1,0.5,0.2c0.1,0.1,0.2,0.2,0.2,0.4v0.8
		c0.2-0.4,0.5-0.7,0.9-1c0.4-0.3,1-0.4,1.6-0.4c0.5,0,0.9,0.1,1.3,0.3s0.8,0.5,1.1,0.8c0.3,0.3,0.5,0.7,0.7,1.2
		c0.2,0.4,0.3,0.9,0.3,1.4v4.9c0,0.2-0.1,0.3-0.2,0.4c-0.2,0.1-0.3,0.1-0.6,0.1c-0.2,0-0.4,0-0.5-0.1c-0.2-0.1-0.2-0.2-0.2-0.4v-4.9
		c0-0.3-0.1-0.6-0.2-0.8c-0.1-0.3-0.3-0.5-0.5-0.7c-0.2-0.2-0.4-0.4-0.7-0.5c-0.3-0.1-0.5-0.2-0.8-0.2c-0.3,0-0.5,0.1-0.8,0.2
		c-0.2,0.1-0.5,0.2-0.7,0.4s-0.4,0.4-0.5,0.7c-0.1,0.3-0.2,0.6-0.2,0.9V15.8z"/>
	<path fill="#7BC46F" d="M86.9,30.2c0.2,0,0.4,0.1,0.6,0.2c0.2,0.1,0.2,0.2,0.2,0.4V40c0,0.5-0.1,1-0.2,1.5
		c-0.1,0.4-0.3,0.8-0.5,1.1c-0.2,0.3-0.5,0.6-0.8,0.7c-0.3,0.2-0.7,0.3-1.2,0.3c-0.3,0-0.5-0.1-0.6-0.2c-0.1-0.1-0.2-0.3-0.2-0.5
		c0-0.2,0.1-0.4,0.2-0.5c0.1-0.1,0.3-0.2,0.5-0.2c0.3,0,0.5-0.1,0.6-0.2c0.2-0.1,0.3-0.3,0.4-0.5c0.1-0.2,0.1-0.4,0.2-0.7
		c0-0.3,0-0.6,0-0.9v-9.2c0-0.2,0.1-0.3,0.2-0.4C86.5,30.2,86.7,30.2,86.9,30.2z M86.9,25.9c0.3,0,0.5,0.1,0.7,0.3
		c0.2,0.2,0.3,0.4,0.3,0.6c0,0.2-0.1,0.5-0.3,0.6s-0.4,0.3-0.7,0.3c-0.3,0-0.5-0.1-0.7-0.3s-0.3-0.4-0.3-0.6c0-0.2,0.1-0.4,0.3-0.6
		C86.4,26,86.6,25.9,86.9,25.9z"/>
	<path fill="#7BC46F" d="M93.4,30.1c0.5,0,1,0.1,1.4,0.3s0.9,0.5,1.2,0.8c0.3,0.3,0.6,0.7,0.8,1.2s0.3,0.9,0.3,1.4v1.9
		c0,0.5-0.1,0.9-0.3,1.4s-0.5,0.8-0.8,1.2c-0.3,0.3-0.7,0.6-1.2,0.8c-0.5,0.2-0.9,0.3-1.4,0.3c-0.5,0-1-0.1-1.4-0.3
		c-0.4-0.2-0.8-0.5-1.2-0.8c-0.3-0.3-0.6-0.7-0.8-1.2s-0.3-0.9-0.3-1.4v-1.9c0-0.5,0.1-0.9,0.3-1.4c0.2-0.4,0.5-0.8,0.8-1.2
		c0.3-0.3,0.7-0.6,1.2-0.8C92.4,30.2,92.9,30.1,93.4,30.1z M95.6,33.7c0-0.3-0.1-0.6-0.2-0.8c-0.1-0.3-0.3-0.5-0.5-0.7
		s-0.4-0.4-0.7-0.5s-0.6-0.2-0.9-0.2s-0.6,0.1-0.9,0.2S92,32,91.8,32.2s-0.3,0.4-0.5,0.7c-0.1,0.3-0.2,0.5-0.2,0.8v1.9
		c0,0.3,0.1,0.6,0.2,0.8c0.1,0.3,0.3,0.5,0.5,0.7c0.2,0.2,0.4,0.4,0.7,0.5s0.5,0.2,0.8,0.2s0.6-0.1,0.8-0.2c0.3-0.1,0.5-0.3,0.7-0.5
		s0.4-0.4,0.5-0.7c0.1-0.3,0.2-0.6,0.2-0.8V33.7z"/>
	<path fill="#7BC46F" d="M102.7,39.4c-0.5,0-1-0.1-1.5-0.3c-0.5-0.2-0.9-0.5-1.2-0.8c-0.3-0.3-0.6-0.7-0.8-1.2S99,36.2,99,35.7v-4.9
		c0-0.1,0.1-0.3,0.2-0.4c0.2-0.1,0.3-0.2,0.6-0.2c0.2,0,0.4,0.1,0.5,0.2c0.2,0.1,0.2,0.3,0.2,0.4v4.9c0,0.3,0.1,0.6,0.2,0.8
		c0.1,0.3,0.3,0.5,0.5,0.7s0.4,0.4,0.7,0.5c0.3,0.1,0.6,0.2,0.9,0.2c0.3,0,0.6-0.1,0.8-0.2s0.5-0.3,0.7-0.5s0.4-0.4,0.5-0.7
		c0.1-0.3,0.2-0.5,0.2-0.8v-5c0-0.1,0.1-0.3,0.2-0.4c0.2-0.1,0.3-0.2,0.6-0.2c0.2,0,0.4,0.1,0.6,0.2c0.1,0.1,0.2,0.2,0.2,0.4v5
		c0,0.5-0.1,0.9-0.3,1.4s-0.5,0.8-0.8,1.2c-0.3,0.3-0.7,0.6-1.2,0.8S103.2,39.4,102.7,39.4z"/>
	<path fill="#7BC46F" d="M117.1,39c-0.1,0.1-0.1,0.2-0.2,0.3c-0.1,0.1-0.2,0.1-0.4,0.1c-0.3,0-0.6-0.1-0.6-0.3l-1.8-5.6l-1.8,5.5
		c-0.1,0.3-0.3,0.4-0.7,0.4c-0.2,0-0.3,0-0.4-0.1c-0.1-0.1-0.2-0.2-0.3-0.3l-2.9-7.8c0-0.1,0-0.1-0.1-0.2c0-0.1,0-0.1,0-0.1
		c0-0.2,0.1-0.4,0.3-0.5c0.2-0.1,0.4-0.2,0.6-0.2c0.1,0,0.2,0,0.3,0.1c0.1,0.1,0.2,0.1,0.2,0.2l2.3,6.4l1.8-5.8
		c0.1-0.1,0.1-0.2,0.2-0.3c0.1-0.1,0.2-0.1,0.4-0.1c0.3,0,0.5,0.1,0.6,0.4l1.7,5.8l2.3-6.4c0-0.1,0.1-0.2,0.2-0.2
		c0.1-0.1,0.2-0.1,0.3-0.1c0.2,0,0.4,0.1,0.6,0.2c0.2,0.1,0.3,0.3,0.3,0.5c0,0.1,0,0.2-0.1,0.3L117.1,39z"/>
	<path fill="#7BC46F" d="M126.9,30.2h2.6c0.2,0,0.3,0.1,0.4,0.2c0.1,0.1,0.1,0.3,0.1,0.4s0,0.3-0.1,0.4c-0.1,0.1-0.2,0.2-0.4,0.2
		h-2.6v7.2c0,0.2-0.1,0.3-0.2,0.4c-0.2,0.1-0.4,0.2-0.6,0.2s-0.4-0.1-0.5-0.2s-0.2-0.2-0.2-0.4V28.3c0-0.5,0.1-1,0.3-1.4
		s0.4-0.8,0.7-1.1c0.3-0.3,0.7-0.6,1.1-0.8s0.8-0.3,1.3-0.3h0.7c0.2,0,0.4,0.1,0.5,0.2c0.1,0.1,0.2,0.3,0.2,0.5s-0.1,0.3-0.2,0.5
		c-0.1,0.1-0.3,0.2-0.5,0.2h-0.4c-0.3,0-0.6,0.1-0.8,0.2c-0.3,0.1-0.5,0.3-0.6,0.4c-0.2,0.2-0.3,0.4-0.4,0.6
		c-0.1,0.2-0.2,0.5-0.2,0.8V30.2z"/>
	<path fill="#7BC46F" d="M134,30.1c0.7,0,1.2,0.1,1.7,0.3s0.8,0.5,1.1,0.8s0.5,0.7,0.6,1.2s0.2,0.9,0.2,1.4v4.9
		c0,0.2-0.1,0.3-0.2,0.4c-0.1,0.1-0.3,0.2-0.6,0.2c-0.2,0-0.4-0.1-0.5-0.2c-0.1-0.1-0.2-0.2-0.2-0.4v-0.8c-0.3,0.4-0.7,0.7-1.2,1
		c-0.5,0.3-1,0.5-1.7,0.5c-0.4,0-0.7-0.1-1-0.2c-0.3-0.1-0.6-0.3-0.8-0.5c-0.2-0.2-0.4-0.5-0.6-0.8c-0.1-0.3-0.2-0.7-0.2-1.1
		c0-0.5,0.1-1,0.3-1.3c0.2-0.3,0.5-0.6,0.9-0.8c0.4-0.2,0.9-0.3,1.4-0.4c0.5-0.1,1.1-0.1,1.8-0.1h0.9v-0.4c0-0.3,0-0.6-0.1-0.8
		c-0.1-0.3-0.2-0.5-0.4-0.8c-0.2-0.2-0.4-0.4-0.6-0.6c-0.3-0.1-0.6-0.2-1-0.2c-0.3,0-0.6,0-0.8,0.1s-0.4,0.1-0.6,0.2
		c-0.2,0.1-0.3,0.1-0.4,0.2c-0.1,0.1-0.2,0.1-0.3,0.1c-0.2,0-0.3-0.1-0.4-0.3c-0.1-0.2-0.2-0.4-0.2-0.5c0-0.2,0.1-0.3,0.2-0.4
		c0.2-0.1,0.4-0.2,0.6-0.4s0.5-0.2,0.9-0.2C133.3,30.1,133.6,30.1,134,30.1z M136,35.2h-0.7c-0.4,0-0.8,0-1.2,0
		c-0.4,0-0.7,0.1-1,0.2c-0.3,0.1-0.5,0.2-0.7,0.4c-0.2,0.2-0.3,0.5-0.3,0.8c0,0.5,0.1,0.9,0.4,1.1s0.6,0.3,1,0.3
		c0.3,0,0.5-0.1,0.8-0.2c0.3-0.1,0.5-0.3,0.7-0.5s0.4-0.4,0.5-0.6c0.1-0.2,0.2-0.4,0.2-0.7V35.2z"/>
	<path fill="#7BC46F" d="M138.8,31.1c0,0,0-0.1,0-0.1s0-0.1,0-0.2c0-0.1,0-0.2,0.1-0.3c0.1-0.1,0.1-0.2,0.2-0.2
		c0.1-0.1,0.2-0.1,0.3-0.1c0.1,0,0.2-0.1,0.3-0.1c0.1,0,0.2,0,0.3,0.1c0.1,0.1,0.2,0.1,0.2,0.2l2.4,6.5l2.4-6.4
		c0.1-0.1,0.1-0.2,0.2-0.3c0.1-0.1,0.2-0.1,0.3-0.1c0.1,0,0.2,0,0.3,0.1c0.1,0,0.2,0.1,0.3,0.1c0.1,0.1,0.2,0.1,0.3,0.2
		c0.1,0.1,0.1,0.2,0.1,0.3c0,0.1,0,0.2-0.1,0.3l-3.1,7.9c-0.1,0.1-0.1,0.2-0.3,0.2c-0.1,0.1-0.3,0.1-0.4,0.1c-0.2,0-0.3,0-0.5-0.1
		c-0.1-0.1-0.2-0.1-0.3-0.3L138.8,31.1z"/>
	<path fill="#7BC46F" d="M151.3,30.1c0.5,0,1,0.1,1.4,0.3c0.5,0.2,0.9,0.5,1.2,0.8s0.6,0.7,0.8,1.2s0.3,0.9,0.3,1.4v1.9
		c0,0.5-0.1,0.9-0.3,1.4s-0.5,0.8-0.8,1.2c-0.3,0.3-0.7,0.6-1.2,0.8c-0.5,0.2-0.9,0.3-1.4,0.3c-0.5,0-1-0.1-1.4-0.3
		c-0.4-0.2-0.8-0.5-1.2-0.8c-0.3-0.3-0.6-0.7-0.8-1.2s-0.3-0.9-0.3-1.4v-1.9c0-0.5,0.1-0.9,0.3-1.4c0.2-0.4,0.5-0.8,0.8-1.2
		c0.3-0.3,0.7-0.6,1.2-0.8C150.3,30.2,150.8,30.1,151.3,30.1z M153.5,33.7c0-0.3-0.1-0.6-0.2-0.8c-0.1-0.3-0.3-0.5-0.5-0.7
		c-0.2-0.2-0.4-0.4-0.7-0.5s-0.6-0.2-0.9-0.2c-0.3,0-0.6,0.1-0.9,0.2c-0.3,0.1-0.5,0.3-0.7,0.5s-0.3,0.4-0.5,0.7
		c-0.1,0.3-0.2,0.5-0.2,0.8v1.9c0,0.3,0.1,0.6,0.2,0.8c0.1,0.3,0.3,0.5,0.5,0.7c0.2,0.2,0.4,0.4,0.7,0.5s0.5,0.2,0.8,0.2
		c0.3,0,0.6-0.1,0.8-0.2s0.5-0.3,0.7-0.5c0.2-0.2,0.4-0.4,0.5-0.7c0.1-0.3,0.2-0.6,0.2-0.8V33.7z"/>
	<path fill="#7BC46F" d="M161,31.5c-0.3,0-0.6,0.1-0.9,0.2s-0.5,0.3-0.8,0.6c-0.2,0.2-0.4,0.5-0.5,0.9c-0.1,0.3-0.2,0.7-0.2,1.2v4.3
		c0,0.1-0.1,0.3-0.2,0.4c-0.2,0.1-0.3,0.2-0.6,0.2c-0.2,0-0.4-0.1-0.6-0.2c-0.1-0.1-0.2-0.2-0.2-0.4v-7.9c0-0.2,0.1-0.3,0.2-0.4
		c0.1-0.1,0.3-0.2,0.6-0.2c0.2,0,0.4,0.1,0.5,0.2c0.1,0.1,0.2,0.2,0.2,0.4v0.9c0.2-0.4,0.5-0.8,1-1.1c0.4-0.3,0.9-0.5,1.5-0.5h0.6
		c0.2,0,0.3,0.1,0.4,0.2s0.2,0.3,0.2,0.5s-0.1,0.4-0.2,0.5c-0.1,0.1-0.3,0.2-0.4,0.2H161z"/>
	<path fill="#7BC46F" d="M164.3,25.9c0.3,0,0.5,0.1,0.7,0.3c0.2,0.2,0.3,0.4,0.3,0.6c0,0.2-0.1,0.5-0.3,0.6s-0.4,0.3-0.7,0.3
		c-0.3,0-0.5-0.1-0.7-0.3c-0.2-0.2-0.3-0.4-0.3-0.6c0-0.2,0.1-0.4,0.3-0.6C163.8,26,164,25.9,164.3,25.9z M164.3,30.2
		c0.2,0,0.4,0.1,0.6,0.2c0.2,0.1,0.2,0.2,0.2,0.4v7.9c0,0.1-0.1,0.3-0.2,0.4c-0.2,0.1-0.3,0.2-0.6,0.2c-0.2,0-0.4-0.1-0.6-0.2
		c-0.2-0.1-0.2-0.2-0.2-0.4v-7.9c0-0.2,0.1-0.3,0.2-0.4C163.9,30.2,164.1,30.2,164.3,30.2z"/>
	<path fill="#7BC46F" d="M170.8,30.1c0.5,0,0.9,0.1,1.4,0.3c0.4,0.2,0.8,0.4,1.2,0.7c0.3,0.3,0.6,0.7,0.8,1.1s0.3,0.9,0.3,1.4
		c0,0.4,0,0.7-0.1,0.9s-0.2,0.4-0.4,0.5c-0.2,0.1-0.3,0.2-0.5,0.2c-0.2,0-0.4,0-0.6,0h-4.2v0.6c0,0.7,0.2,1.3,0.8,1.7
		s1.1,0.6,1.9,0.6c0.4,0,0.7,0,0.9-0.1c0.2-0.1,0.4-0.2,0.6-0.3c0.2-0.1,0.3-0.2,0.4-0.3c0.1-0.1,0.2-0.1,0.4-0.1
		c0.2,0,0.3,0.1,0.5,0.3s0.2,0.3,0.2,0.5c0,0.1-0.1,0.3-0.2,0.4c-0.1,0.2-0.3,0.3-0.6,0.4c-0.3,0.1-0.6,0.3-1,0.4
		c-0.4,0.1-0.8,0.1-1.2,0.1c-0.6,0-1.2-0.1-1.7-0.3c-0.5-0.2-1-0.4-1.3-0.8c-0.4-0.3-0.7-0.7-0.9-1.2s-0.3-1-0.3-1.5v-2
		c0-0.5,0.1-0.9,0.3-1.4c0.2-0.4,0.5-0.8,0.8-1.1c0.3-0.3,0.7-0.6,1.2-0.8C169.8,30.2,170.3,30.1,170.8,30.1z M172.1,34.1
		c0.3,0,0.6,0,0.7-0.1c0.1-0.1,0.2-0.2,0.2-0.5c0-0.3-0.1-0.5-0.2-0.8c-0.1-0.3-0.3-0.5-0.4-0.7c-0.2-0.2-0.4-0.4-0.7-0.5
		c-0.3-0.1-0.6-0.2-0.9-0.2c-0.3,0-0.6,0.1-0.8,0.2c-0.3,0.1-0.5,0.3-0.7,0.4c-0.2,0.2-0.4,0.4-0.5,0.7c-0.1,0.3-0.2,0.5-0.2,0.8
		v0.7H172.1z"/>
	<path fill="#7BC46F" d="M177.7,36.3c0,0.5,0.1,0.9,0.3,1.1c0.2,0.2,0.6,0.3,1.2,0.3h0.6c0.2,0,0.4,0.1,0.5,0.2
		c0.1,0.1,0.2,0.3,0.2,0.5c0,0.2-0.1,0.3-0.2,0.5c-0.1,0.1-0.3,0.2-0.5,0.2h-0.6c-1,0-1.8-0.2-2.3-0.7c-0.5-0.5-0.8-1.2-0.8-2.2
		v-9.8c0-0.2,0.1-0.3,0.3-0.4c0.2-0.1,0.3-0.2,0.5-0.2c0.2,0,0.4,0.1,0.6,0.2c0.2,0.1,0.2,0.2,0.2,0.4v3.6h2.4
		c0.1,0,0.3,0.1,0.3,0.2c0.1,0.1,0.1,0.3,0.1,0.4s0,0.3-0.1,0.4c-0.1,0.1-0.2,0.2-0.3,0.2h-2.4V36.3z"/>
	<path fill="#7BC46F" d="M185.4,30.1c0.5,0,0.9,0.1,1.4,0.3c0.4,0.2,0.8,0.4,1.2,0.7c0.3,0.3,0.6,0.7,0.8,1.1s0.3,0.9,0.3,1.4
		c0,0.4,0,0.7-0.1,0.9s-0.2,0.4-0.4,0.5c-0.2,0.1-0.3,0.2-0.5,0.2c-0.2,0-0.4,0-0.6,0h-4.2v0.6c0,0.7,0.2,1.3,0.8,1.7
		s1.1,0.6,1.9,0.6c0.4,0,0.7,0,0.9-0.1c0.2-0.1,0.4-0.2,0.6-0.3c0.2-0.1,0.3-0.2,0.4-0.3c0.1-0.1,0.2-0.1,0.4-0.1
		c0.2,0,0.3,0.1,0.5,0.3s0.2,0.3,0.2,0.5c0,0.1-0.1,0.3-0.2,0.4c-0.1,0.2-0.3,0.3-0.6,0.4c-0.3,0.1-0.6,0.3-1,0.4
		c-0.4,0.1-0.8,0.1-1.2,0.1c-0.6,0-1.2-0.1-1.7-0.3c-0.5-0.2-1-0.4-1.3-0.8c-0.4-0.3-0.7-0.7-0.9-1.2s-0.3-1-0.3-1.5v-2
		c0-0.5,0.1-0.9,0.3-1.4c0.2-0.4,0.5-0.8,0.8-1.1c0.3-0.3,0.7-0.6,1.2-0.8C184.4,30.2,184.9,30.1,185.4,30.1z M186.7,34.1
		c0.3,0,0.6,0,0.7-0.1c0.1-0.1,0.2-0.2,0.2-0.5c0-0.3-0.1-0.5-0.2-0.8c-0.1-0.3-0.3-0.5-0.4-0.7c-0.2-0.2-0.4-0.4-0.7-0.5
		c-0.3-0.1-0.6-0.2-0.9-0.2c-0.3,0-0.6,0.1-0.8,0.2c-0.3,0.1-0.5,0.3-0.7,0.4c-0.2,0.2-0.4,0.4-0.5,0.7c-0.1,0.3-0.2,0.5-0.2,0.8
		v0.7H186.7z"/>
</g>
<g>
	<g>
		<path fill="#7BC46F" d="M56.3,40.3L54.7,40c-0.7-0.1-1.4,0.2-1.7,1.1c-0.1,0.7,0.1,1.4,1.1,1.7l5,1.2c0.7,0.1,1.4-0.2,1.7-1.1
			l1.2-5c0.1-0.7-0.2-1.4-1.1-1.7c-0.7-0.1-1.4,0.2-1.7,1.1L58.7,39c-3.2-5-3-11.3,0.7-16.1c3.7-4.6,10-6.4,15.6-4.4
			c0.8,0.4,1.5,0,1.8-0.7s0-1.5-0.8-1.8c-6.7-2.5-14.3-0.4-18.7,5.4C52.9,26.8,52.5,34.4,56.3,40.3L56.3,40.3z"/>
	</g>
</g>
</svg>
