<?xml version="1.0" encoding="utf-8"?>
<!-- Generator: Adobe Illustrator 18.1.1, SVG Export Plug-In . SVG Version: 6.00 Build 0)  -->
<svg version="1.1" id="Layer_1" xmlns="http://www.w3.org/2000/svg" xmlns:xlink="http://www.w3.org/1999/xlink" x="0px" y="0px"
	 viewBox="0 0 132.7 42.5" enable-background="new 0 0 132.7 42.5" xml:space="preserve">
<rect x="25.3" fill="none" width="218.6" height="100"/>
<text transform="matrix(1 0 0 1 25.3062 14.4399)"><tspan x="0" y="0" fill="#7BC46F" font-family="'Dosis-Medium'" font-size="19">Voeg toe aan </tspan><tspan x="0" y="22.8" fill="#7BC46F" font-family="'Dosis-Medium'" font-size="19">jouw favoriete</tspan></text>
<g>
	<g>
		<path fill="#7BC46F" d="M9,38l-1.4-0.3c-0.6-0.1-1.2,0.2-1.4,0.9c-0.1,0.6,0.1,1.2,0.9,1.4l4.2,1c0.6,0.1,1.2-0.2,1.4-0.9l1-4.2
			c0.1-0.6-0.2-1.2-0.9-1.4c-0.6-0.1-1.2,0.2-1.4,0.9L11,36.9c-2.7-4.2-2.5-9.5,0.6-13.5c3.1-3.9,8.4-5.4,13.1-3.7
			c0.7,0.3,1.3,0,1.5-0.6c0.2-0.6,0-1.3-0.7-1.5c-5.6-2.1-12-0.3-15.7,4.5C6.1,26.6,5.8,33,9,38L9,38z M9,38"/>
	</g>
</g>
</svg>
