<?xml version="1.0" encoding="utf-8"?>
<!-- Generator: Adobe Illustrator 18.1.1, SVG Export Plug-In . SVG Version: 6.00 Build 0)  -->
<svg version="1.1" id="Layer_1" xmlns="http://www.w3.org/2000/svg" xmlns:xlink="http://www.w3.org/1999/xlink" x="0px" y="0px"
	 viewBox="0 0 612 792" enable-background="new 0 0 612 792" xml:space="preserve">
<g>
	<g>
		<path fill="#FFFFFF" d="M492,479.2c51.4,18.4,97.9,71,97.9,127.3c0,89.4-75.9,96.7-148.1,96.7c-72.2-1.2-148.1-7.3-148.1-97.9
			c0-50.2,35.5-96.7,79.6-118.7c-3.7-9.8-7.3-20.8-12.2-29.4c-15.9-25.7,3.7-52.6,34.3-50.2c1.2,0,2.4,0,3.7,0
			c12.2-26.9,45.3-30.6,63.6-7.3c33-9.8,55.1,20.8,37.9,49C495.7,454.8,490.8,470.7,492,479.2C492,478,492,479.2,492,479.2z"/>
	</g>
	<g>
		<path d="M397.8,486.6c3.7,6.1,25.7,9.8,36.7,8.6c11,0,34.3-4.9,33-14.7c-1.2-17.1,9.8-41.6,11-44.1c3.7-6.1,4.9-20.8-13.5-13.5
			c-3.7,1.2-14.7,12.2-18.4,0c-7.3-22-25.7-15.9-29.4-1.2c-2.4,9.8-13.5,11-25.7,9.8c-14.7-1.2-15.9,7.3-11,15.9
			C383.1,448.6,394.1,479.2,397.8,486.6z"/>
		<path d="M435.7,509.8c-29.4,1.2-37.9-9.8-39.2-8.6c-42.8,14.7-79.6,60-79.6,104c0,57.5,33,73.4,124.8,73.4s124.8-15.9,124.8-73.4
			c0-47.7-44.1-94.2-90.6-107.7C472.5,497.6,468.8,509.8,435.7,509.8L435.7,509.8z M441.9,626.1v12.2c0,1.2-1.2,1.2-1.2,1.2h-11
			c-1.2,0-1.2-1.2-1.2-1.2v-11c-7.3,0-14.7-2.4-19.6-6.1c-1.2,0-1.2-1.2-1.2-1.2l3.7-12.2c0,0,0-1.2,1.2-1.2h1.2
			c3.7,2.4,9.8,4.9,19.6,4.9c7.3,0,12.2-3.7,12.2-8.6c0-4.9-3.7-8.6-13.5-11c-11-3.7-23.3-9.8-23.3-24.5c0-12.2,7.3-20.8,20.8-23.3
			v-11c0-1.2,1.2-1.2,1.2-1.2h11c1.2,0,1.2,1.2,1.2,1.2v9.8c8.6,0,13.5,2.4,17.1,4.9c1.2,0,1.2,1.2,1.2,2.4l-3.7,12.2
			c0,0,0,1.2-1.2,1.2h-1.2c-3.7-1.2-8.6-4.9-17.1-4.9c-6.1,0-11,2.4-11,7.3c0,3.7,3.7,7.3,14.7,11c14.7,6.1,22,13.5,22,25.7
			C463.9,613.9,455.3,622.4,441.9,626.1z"/>
	</g>
	<g>
		<g>
			<path d="M351.7,438.2v-256c0-56.2-45.8-102-102.1-102c-56.2,0-102,45.8-102,102v256c-24.9,25.5-40,60.3-40,98.6
				c0,78.3,63.7,141.9,141.9,141.9c78.3,0,142-63.7,142-141.9C391.6,498.6,376.6,463.8,351.7,438.2z M249.5,639.4
				c-56.6,0-102.6-46-102.6-102.6c0-33.1,15.4-62.6,40.3-81.4V293.1h44.2c7.2,0,13.1-6.2,13.1-13.4c0-7.2-5.9-13.4-13.1-13.4h-44.2
				V234h44.2c7.2,0,13.1-5.7,13.1-12.9c0-7.2-5.9-12.9-13.1-12.9h-44.2v-25.9c0-34.6,27.8-62.7,62.3-62.7
				c34.6,0,62.3,28.1,62.3,62.7v273.6c24.9,18.8,39.9,48.1,39.9,81C351.9,593.4,306.1,639.4,249.5,639.4z"/>
			<path d="M282.4,479.6V324.5h-65.6v155.1c-20.3,11.5-33.3,32.8-33.3,57.3c0,36.5,29.5,66.1,66,66.1c36.5,0,66-29.6,66-66.1
				C315.6,512.4,302.8,491,282.4,479.6z"/>
		</g>
	</g>
</g>
</svg>
