<?xml version="1.0" encoding="utf-8"?>
<!-- Generator: Adobe Illustrator 18.1.1, SVG Export Plug-In . SVG Version: 6.00 Build 0)  -->
<svg version="1.1" id="Layer_1" xmlns="http://www.w3.org/2000/svg" xmlns:xlink="http://www.w3.org/1999/xlink" x="0px" y="0px"
	 viewBox="0 0 50 50" enable-background="new 0 0 50 50" xml:space="preserve">
<g id="Thumbs_up">
	<path id="XMLID_117_" fill="#70D871" d="M33.9,42.3c0.7-1.3,5.2-8.2,4.6-17.2c0,0-0.3-0.2-0.9-0.3c-0.6-0.2-4.6-2-5-2.3
		c0,0-1.3-5-3.5-6c-2.2-1-6.8-6.7-7.3-7.1c-0.5-0.5-2.2-0.4-4.7-3c-1.9-2-1.6-3.5-1.6-3.5s0.1-1.1-1.4-1.1c-0.1,0-0.2,0-0.5,0.1
		c-0.8,0.2-3.8,3.7-1.4,7.6c0,0,2.2,3.2,3.9,4.4c0,0,2.2,3.8-0.3,5.2c0,0-5.3,1.2-5.8,1.3c-0.5,0.1-2.7-0.6-3.2-0.7
		c-0.6-0.1-3.5-0.3-4,0.2c-0.6,0.6-1.5,2.6-1.6,4.5c0,0-0.3,1.8,1.8,2.4c0,0-1.3,1-1.3,2.5s-0.2,3.5,2.1,4c0,0-0.6,0.5-0.7,1.5
		c-0.1,1,0.2,4.5,2.8,4.7c0,0,0.3,3.6,2,4.8c1.6,1.3,11.9,1.8,16.7,0.5c0,0,2.7-1,4.1-0.8c2,0.2,3.2-0.1,3.2-0.1
		S33.2,43.6,33.9,42.3z"/>
	<path id="XMLID_116_" fill="#70D871" d="M44.8,23.6c-2.3-0.4-4.6-0.7-5-0.8c-0.6-0.1-1.2,0.1-1.6,0.4c0.1,0,0.2-0.2,0.4-0.2h0
		c0.4,0,0.8,0.3,1.1,0.5c0.4,0.2,1,0.9,1.1,2.4c0,0.5,0,1.2,0,1.8c0,0.4,0,0.7,0,1c0,0.2,0,0.4-0.1,0.6c-0.2,1.3-1.1,8.1-4.7,13.9
		c-1.3,2.2-2.3,2.1-4,2.2c0.6,1.1,1.6,1.6,1.6,1.6s5.6,1.5,7.9,0.6l-0.1,0c4.5-1.6,5.9-4.7,7.3-9.1c0.7-2.3,1.2-4.7,1.4-6.7
		c0.1-1,0.2-1.8,0.2-2.5C50.5,25.6,46.9,24.2,44.8,23.6z"/>
</g>
</svg>
